<mxfile host="Electron" modified="2023-10-12T14:48:33.624Z" agent="Mozilla/5.0 (Windows NT 10.0; Win64; x64) AppleWebKit/537.36 (KHTML, like Gecko) draw.io/21.7.5 Chrome/114.0.5735.289 Electron/25.8.1 Safari/537.36" etag="aZuZSNW_Rpnv8FURzsnc" version="21.7.5" type="device">
  <diagram name="Page-1" id="RNXGi5-PNvS8aREvbcNE">
    <mxGraphModel dx="1048" dy="619" grid="1" gridSize="10" guides="1" tooltips="1" connect="1" arrows="1" fold="1" page="1" pageScale="1" pageWidth="850" pageHeight="1100" math="0" shadow="0">
      <root>
        <mxCell id="0" />
        <mxCell id="1" parent="0" />
        <mxCell id="XBNMR6LFCFE2xAtTI4Hr-3" value="Users" style="shape=table;startSize=30;container=1;collapsible=1;childLayout=tableLayout;fixedRows=1;rowLines=0;fontStyle=1;align=center;resizeLast=1;html=1;" parent="1" vertex="1">
          <mxGeometry x="330" y="80" width="180" height="450" as="geometry" />
        </mxCell>
        <mxCell id="XBNMR6LFCFE2xAtTI4Hr-4" value="" style="shape=tableRow;horizontal=0;startSize=0;swimlaneHead=0;swimlaneBody=0;fillColor=none;collapsible=0;dropTarget=0;points=[[0,0.5],[1,0.5]];portConstraint=eastwest;top=0;left=0;right=0;bottom=1;" parent="XBNMR6LFCFE2xAtTI4Hr-3" vertex="1">
          <mxGeometry y="30" width="180" height="30" as="geometry" />
        </mxCell>
        <mxCell id="XBNMR6LFCFE2xAtTI4Hr-5" value="PK" style="shape=partialRectangle;connectable=0;fillColor=none;top=0;left=0;bottom=0;right=0;fontStyle=1;overflow=hidden;whiteSpace=wrap;html=1;" parent="XBNMR6LFCFE2xAtTI4Hr-4" vertex="1">
          <mxGeometry width="30" height="30" as="geometry">
            <mxRectangle width="30" height="30" as="alternateBounds" />
          </mxGeometry>
        </mxCell>
        <mxCell id="XBNMR6LFCFE2xAtTI4Hr-6" value="user_id" style="shape=partialRectangle;connectable=0;fillColor=none;top=0;left=0;bottom=0;right=0;align=left;spacingLeft=6;fontStyle=5;overflow=hidden;whiteSpace=wrap;html=1;" parent="XBNMR6LFCFE2xAtTI4Hr-4" vertex="1">
          <mxGeometry x="30" width="150" height="30" as="geometry">
            <mxRectangle width="150" height="30" as="alternateBounds" />
          </mxGeometry>
        </mxCell>
        <mxCell id="XBNMR6LFCFE2xAtTI4Hr-7" value="" style="shape=tableRow;horizontal=0;startSize=0;swimlaneHead=0;swimlaneBody=0;fillColor=none;collapsible=0;dropTarget=0;points=[[0,0.5],[1,0.5]];portConstraint=eastwest;top=0;left=0;right=0;bottom=0;" parent="XBNMR6LFCFE2xAtTI4Hr-3" vertex="1">
          <mxGeometry y="60" width="180" height="30" as="geometry" />
        </mxCell>
        <mxCell id="XBNMR6LFCFE2xAtTI4Hr-8" value="U" style="shape=partialRectangle;connectable=0;fillColor=none;top=0;left=0;bottom=0;right=0;editable=1;overflow=hidden;whiteSpace=wrap;html=1;" parent="XBNMR6LFCFE2xAtTI4Hr-7" vertex="1">
          <mxGeometry width="30" height="30" as="geometry">
            <mxRectangle width="30" height="30" as="alternateBounds" />
          </mxGeometry>
        </mxCell>
        <mxCell id="XBNMR6LFCFE2xAtTI4Hr-9" value="acces_token" style="shape=partialRectangle;connectable=0;fillColor=none;top=0;left=0;bottom=0;right=0;align=left;spacingLeft=6;overflow=hidden;whiteSpace=wrap;html=1;" parent="XBNMR6LFCFE2xAtTI4Hr-7" vertex="1">
          <mxGeometry x="30" width="150" height="30" as="geometry">
            <mxRectangle width="150" height="30" as="alternateBounds" />
          </mxGeometry>
        </mxCell>
        <mxCell id="XBNMR6LFCFE2xAtTI4Hr-86" value="" style="shape=tableRow;horizontal=0;startSize=0;swimlaneHead=0;swimlaneBody=0;fillColor=none;collapsible=0;dropTarget=0;points=[[0,0.5],[1,0.5]];portConstraint=eastwest;top=0;left=0;right=0;bottom=0;" parent="XBNMR6LFCFE2xAtTI4Hr-3" vertex="1">
          <mxGeometry y="90" width="180" height="30" as="geometry" />
        </mxCell>
        <mxCell id="XBNMR6LFCFE2xAtTI4Hr-87" value="FK" style="shape=partialRectangle;connectable=0;fillColor=none;top=0;left=0;bottom=0;right=0;fontStyle=0;overflow=hidden;whiteSpace=wrap;html=1;" parent="XBNMR6LFCFE2xAtTI4Hr-86" vertex="1">
          <mxGeometry width="30" height="30" as="geometry">
            <mxRectangle width="30" height="30" as="alternateBounds" />
          </mxGeometry>
        </mxCell>
        <mxCell id="XBNMR6LFCFE2xAtTI4Hr-88" value="post_id" style="shape=partialRectangle;connectable=0;fillColor=none;top=0;left=0;bottom=0;right=0;align=left;spacingLeft=6;fontStyle=0;overflow=hidden;whiteSpace=wrap;html=1;" parent="XBNMR6LFCFE2xAtTI4Hr-86" vertex="1">
          <mxGeometry x="30" width="150" height="30" as="geometry">
            <mxRectangle width="150" height="30" as="alternateBounds" />
          </mxGeometry>
        </mxCell>
        <mxCell id="XBNMR6LFCFE2xAtTI4Hr-83" value="" style="shape=tableRow;horizontal=0;startSize=0;swimlaneHead=0;swimlaneBody=0;fillColor=none;collapsible=0;dropTarget=0;points=[[0,0.5],[1,0.5]];portConstraint=eastwest;top=0;left=0;right=0;bottom=0;" parent="XBNMR6LFCFE2xAtTI4Hr-3" vertex="1">
          <mxGeometry y="120" width="180" height="30" as="geometry" />
        </mxCell>
        <mxCell id="XBNMR6LFCFE2xAtTI4Hr-84" value="FK" style="shape=partialRectangle;connectable=0;fillColor=none;top=0;left=0;bottom=0;right=0;fontStyle=0;overflow=hidden;whiteSpace=wrap;html=1;" parent="XBNMR6LFCFE2xAtTI4Hr-83" vertex="1">
          <mxGeometry width="30" height="30" as="geometry">
            <mxRectangle width="30" height="30" as="alternateBounds" />
          </mxGeometry>
        </mxCell>
        <mxCell id="XBNMR6LFCFE2xAtTI4Hr-85" value="chat_id" style="shape=partialRectangle;connectable=0;fillColor=none;top=0;left=0;bottom=0;right=0;align=left;spacingLeft=6;fontStyle=0;overflow=hidden;whiteSpace=wrap;html=1;" parent="XBNMR6LFCFE2xAtTI4Hr-83" vertex="1">
          <mxGeometry x="30" width="150" height="30" as="geometry">
            <mxRectangle width="150" height="30" as="alternateBounds" />
          </mxGeometry>
        </mxCell>
        <mxCell id="XBNMR6LFCFE2xAtTI4Hr-10" value="" style="shape=tableRow;horizontal=0;startSize=0;swimlaneHead=0;swimlaneBody=0;fillColor=none;collapsible=0;dropTarget=0;points=[[0,0.5],[1,0.5]];portConstraint=eastwest;top=0;left=0;right=0;bottom=0;" parent="XBNMR6LFCFE2xAtTI4Hr-3" vertex="1">
          <mxGeometry y="150" width="180" height="30" as="geometry" />
        </mxCell>
        <mxCell id="XBNMR6LFCFE2xAtTI4Hr-11" value="" style="shape=partialRectangle;connectable=0;fillColor=none;top=0;left=0;bottom=0;right=0;editable=1;overflow=hidden;whiteSpace=wrap;html=1;" parent="XBNMR6LFCFE2xAtTI4Hr-10" vertex="1">
          <mxGeometry width="30" height="30" as="geometry">
            <mxRectangle width="30" height="30" as="alternateBounds" />
          </mxGeometry>
        </mxCell>
        <mxCell id="XBNMR6LFCFE2xAtTI4Hr-12" value="user_name" style="shape=partialRectangle;connectable=0;fillColor=none;top=0;left=0;bottom=0;right=0;align=left;spacingLeft=6;overflow=hidden;whiteSpace=wrap;html=1;" parent="XBNMR6LFCFE2xAtTI4Hr-10" vertex="1">
          <mxGeometry x="30" width="150" height="30" as="geometry">
            <mxRectangle width="150" height="30" as="alternateBounds" />
          </mxGeometry>
        </mxCell>
        <mxCell id="XBNMR6LFCFE2xAtTI4Hr-13" value="" style="shape=tableRow;horizontal=0;startSize=0;swimlaneHead=0;swimlaneBody=0;fillColor=none;collapsible=0;dropTarget=0;points=[[0,0.5],[1,0.5]];portConstraint=eastwest;top=0;left=0;right=0;bottom=0;" parent="XBNMR6LFCFE2xAtTI4Hr-3" vertex="1">
          <mxGeometry y="180" width="180" height="30" as="geometry" />
        </mxCell>
        <mxCell id="XBNMR6LFCFE2xAtTI4Hr-14" value="" style="shape=partialRectangle;connectable=0;fillColor=none;top=0;left=0;bottom=0;right=0;editable=1;overflow=hidden;whiteSpace=wrap;html=1;" parent="XBNMR6LFCFE2xAtTI4Hr-13" vertex="1">
          <mxGeometry width="30" height="30" as="geometry">
            <mxRectangle width="30" height="30" as="alternateBounds" />
          </mxGeometry>
        </mxCell>
        <mxCell id="XBNMR6LFCFE2xAtTI4Hr-15" value="mail" style="shape=partialRectangle;connectable=0;fillColor=none;top=0;left=0;bottom=0;right=0;align=left;spacingLeft=6;overflow=hidden;whiteSpace=wrap;html=1;" parent="XBNMR6LFCFE2xAtTI4Hr-13" vertex="1">
          <mxGeometry x="30" width="150" height="30" as="geometry">
            <mxRectangle width="150" height="30" as="alternateBounds" />
          </mxGeometry>
        </mxCell>
        <mxCell id="XBNMR6LFCFE2xAtTI4Hr-16" value="" style="shape=tableRow;horizontal=0;startSize=0;swimlaneHead=0;swimlaneBody=0;fillColor=none;collapsible=0;dropTarget=0;points=[[0,0.5],[1,0.5]];portConstraint=eastwest;top=0;left=0;right=0;bottom=0;" parent="XBNMR6LFCFE2xAtTI4Hr-3" vertex="1">
          <mxGeometry y="210" width="180" height="30" as="geometry" />
        </mxCell>
        <mxCell id="XBNMR6LFCFE2xAtTI4Hr-17" value="" style="shape=partialRectangle;connectable=0;fillColor=none;top=0;left=0;bottom=0;right=0;editable=1;overflow=hidden;" parent="XBNMR6LFCFE2xAtTI4Hr-16" vertex="1">
          <mxGeometry width="30" height="30" as="geometry">
            <mxRectangle width="30" height="30" as="alternateBounds" />
          </mxGeometry>
        </mxCell>
        <mxCell id="XBNMR6LFCFE2xAtTI4Hr-18" value="sex" style="shape=partialRectangle;connectable=0;fillColor=none;top=0;left=0;bottom=0;right=0;align=left;spacingLeft=6;overflow=hidden;" parent="XBNMR6LFCFE2xAtTI4Hr-16" vertex="1">
          <mxGeometry x="30" width="150" height="30" as="geometry">
            <mxRectangle width="150" height="30" as="alternateBounds" />
          </mxGeometry>
        </mxCell>
        <mxCell id="XBNMR6LFCFE2xAtTI4Hr-20" value="" style="shape=tableRow;horizontal=0;startSize=0;swimlaneHead=0;swimlaneBody=0;fillColor=none;collapsible=0;dropTarget=0;points=[[0,0.5],[1,0.5]];portConstraint=eastwest;top=0;left=0;right=0;bottom=0;" parent="XBNMR6LFCFE2xAtTI4Hr-3" vertex="1">
          <mxGeometry y="240" width="180" height="30" as="geometry" />
        </mxCell>
        <mxCell id="XBNMR6LFCFE2xAtTI4Hr-21" value="" style="shape=partialRectangle;connectable=0;fillColor=none;top=0;left=0;bottom=0;right=0;editable=1;overflow=hidden;" parent="XBNMR6LFCFE2xAtTI4Hr-20" vertex="1">
          <mxGeometry width="30" height="30" as="geometry">
            <mxRectangle width="30" height="30" as="alternateBounds" />
          </mxGeometry>
        </mxCell>
        <mxCell id="XBNMR6LFCFE2xAtTI4Hr-22" value="foto_ptr" style="shape=partialRectangle;connectable=0;fillColor=none;top=0;left=0;bottom=0;right=0;align=left;spacingLeft=6;overflow=hidden;" parent="XBNMR6LFCFE2xAtTI4Hr-20" vertex="1">
          <mxGeometry x="30" width="150" height="30" as="geometry">
            <mxRectangle width="150" height="30" as="alternateBounds" />
          </mxGeometry>
        </mxCell>
        <mxCell id="XBNMR6LFCFE2xAtTI4Hr-23" value="" style="shape=tableRow;horizontal=0;startSize=0;swimlaneHead=0;swimlaneBody=0;fillColor=none;collapsible=0;dropTarget=0;points=[[0,0.5],[1,0.5]];portConstraint=eastwest;top=0;left=0;right=0;bottom=0;" parent="XBNMR6LFCFE2xAtTI4Hr-3" vertex="1">
          <mxGeometry y="270" width="180" height="30" as="geometry" />
        </mxCell>
        <mxCell id="XBNMR6LFCFE2xAtTI4Hr-24" value="" style="shape=partialRectangle;connectable=0;fillColor=none;top=0;left=0;bottom=0;right=0;editable=1;overflow=hidden;" parent="XBNMR6LFCFE2xAtTI4Hr-23" vertex="1">
          <mxGeometry width="30" height="30" as="geometry">
            <mxRectangle width="30" height="30" as="alternateBounds" />
          </mxGeometry>
        </mxCell>
        <mxCell id="XBNMR6LFCFE2xAtTI4Hr-25" value="followers" style="shape=partialRectangle;connectable=0;fillColor=none;top=0;left=0;bottom=0;right=0;align=left;spacingLeft=6;overflow=hidden;" parent="XBNMR6LFCFE2xAtTI4Hr-23" vertex="1">
          <mxGeometry x="30" width="150" height="30" as="geometry">
            <mxRectangle width="150" height="30" as="alternateBounds" />
          </mxGeometry>
        </mxCell>
        <mxCell id="XBNMR6LFCFE2xAtTI4Hr-26" value="" style="shape=tableRow;horizontal=0;startSize=0;swimlaneHead=0;swimlaneBody=0;fillColor=none;collapsible=0;dropTarget=0;points=[[0,0.5],[1,0.5]];portConstraint=eastwest;top=0;left=0;right=0;bottom=0;" parent="XBNMR6LFCFE2xAtTI4Hr-3" vertex="1">
          <mxGeometry y="300" width="180" height="30" as="geometry" />
        </mxCell>
        <mxCell id="XBNMR6LFCFE2xAtTI4Hr-27" value="" style="shape=partialRectangle;connectable=0;fillColor=none;top=0;left=0;bottom=0;right=0;editable=1;overflow=hidden;" parent="XBNMR6LFCFE2xAtTI4Hr-26" vertex="1">
          <mxGeometry width="30" height="30" as="geometry">
            <mxRectangle width="30" height="30" as="alternateBounds" />
          </mxGeometry>
        </mxCell>
        <mxCell id="XBNMR6LFCFE2xAtTI4Hr-28" value="following" style="shape=partialRectangle;connectable=0;fillColor=none;top=0;left=0;bottom=0;right=0;align=left;spacingLeft=6;overflow=hidden;" parent="XBNMR6LFCFE2xAtTI4Hr-26" vertex="1">
          <mxGeometry x="30" width="150" height="30" as="geometry">
            <mxRectangle width="150" height="30" as="alternateBounds" />
          </mxGeometry>
        </mxCell>
        <mxCell id="XBNMR6LFCFE2xAtTI4Hr-89" value="" style="shape=tableRow;horizontal=0;startSize=0;swimlaneHead=0;swimlaneBody=0;fillColor=none;collapsible=0;dropTarget=0;points=[[0,0.5],[1,0.5]];portConstraint=eastwest;top=0;left=0;right=0;bottom=0;" parent="XBNMR6LFCFE2xAtTI4Hr-3" vertex="1">
          <mxGeometry y="330" width="180" height="30" as="geometry" />
        </mxCell>
        <mxCell id="XBNMR6LFCFE2xAtTI4Hr-90" value="" style="shape=partialRectangle;connectable=0;fillColor=none;top=0;left=0;bottom=0;right=0;editable=1;overflow=hidden;" parent="XBNMR6LFCFE2xAtTI4Hr-89" vertex="1">
          <mxGeometry width="30" height="30" as="geometry">
            <mxRectangle width="30" height="30" as="alternateBounds" />
          </mxGeometry>
        </mxCell>
        <mxCell id="XBNMR6LFCFE2xAtTI4Hr-91" value="user_bio" style="shape=partialRectangle;connectable=0;fillColor=none;top=0;left=0;bottom=0;right=0;align=left;spacingLeft=6;overflow=hidden;" parent="XBNMR6LFCFE2xAtTI4Hr-89" vertex="1">
          <mxGeometry x="30" width="150" height="30" as="geometry">
            <mxRectangle width="150" height="30" as="alternateBounds" />
          </mxGeometry>
        </mxCell>
        <mxCell id="XBNMR6LFCFE2xAtTI4Hr-93" value="" style="shape=tableRow;horizontal=0;startSize=0;swimlaneHead=0;swimlaneBody=0;fillColor=none;collapsible=0;dropTarget=0;points=[[0,0.5],[1,0.5]];portConstraint=eastwest;top=0;left=0;right=0;bottom=0;" parent="XBNMR6LFCFE2xAtTI4Hr-3" vertex="1">
          <mxGeometry y="360" width="180" height="30" as="geometry" />
        </mxCell>
        <mxCell id="XBNMR6LFCFE2xAtTI4Hr-94" value="" style="shape=partialRectangle;connectable=0;fillColor=none;top=0;left=0;bottom=0;right=0;editable=1;overflow=hidden;" parent="XBNMR6LFCFE2xAtTI4Hr-93" vertex="1">
          <mxGeometry width="30" height="30" as="geometry">
            <mxRectangle width="30" height="30" as="alternateBounds" />
          </mxGeometry>
        </mxCell>
        <mxCell id="XBNMR6LFCFE2xAtTI4Hr-95" value="date_birth" style="shape=partialRectangle;connectable=0;fillColor=none;top=0;left=0;bottom=0;right=0;align=left;spacingLeft=6;overflow=hidden;" parent="XBNMR6LFCFE2xAtTI4Hr-93" vertex="1">
          <mxGeometry x="30" width="150" height="30" as="geometry">
            <mxRectangle width="150" height="30" as="alternateBounds" />
          </mxGeometry>
        </mxCell>
        <mxCell id="XBNMR6LFCFE2xAtTI4Hr-100" value="" style="shape=tableRow;horizontal=0;startSize=0;swimlaneHead=0;swimlaneBody=0;fillColor=none;collapsible=0;dropTarget=0;points=[[0,0.5],[1,0.5]];portConstraint=eastwest;top=0;left=0;right=0;bottom=0;" parent="XBNMR6LFCFE2xAtTI4Hr-3" vertex="1">
          <mxGeometry y="390" width="180" height="30" as="geometry" />
        </mxCell>
        <mxCell id="XBNMR6LFCFE2xAtTI4Hr-101" value="" style="shape=partialRectangle;connectable=0;fillColor=none;top=0;left=0;bottom=0;right=0;editable=1;overflow=hidden;" parent="XBNMR6LFCFE2xAtTI4Hr-100" vertex="1">
          <mxGeometry width="30" height="30" as="geometry">
            <mxRectangle width="30" height="30" as="alternateBounds" />
          </mxGeometry>
        </mxCell>
        <mxCell id="XBNMR6LFCFE2xAtTI4Hr-102" value="join_date(private?)" style="shape=partialRectangle;connectable=0;fillColor=none;top=0;left=0;bottom=0;right=0;align=left;spacingLeft=6;overflow=hidden;" parent="XBNMR6LFCFE2xAtTI4Hr-100" vertex="1">
          <mxGeometry x="30" width="150" height="30" as="geometry">
            <mxRectangle width="150" height="30" as="alternateBounds" />
          </mxGeometry>
        </mxCell>
        <mxCell id="XBNMR6LFCFE2xAtTI4Hr-131" value="" style="shape=tableRow;horizontal=0;startSize=0;swimlaneHead=0;swimlaneBody=0;fillColor=none;collapsible=0;dropTarget=0;points=[[0,0.5],[1,0.5]];portConstraint=eastwest;top=0;left=0;right=0;bottom=0;" parent="XBNMR6LFCFE2xAtTI4Hr-3" vertex="1">
          <mxGeometry y="420" width="180" height="30" as="geometry" />
        </mxCell>
        <mxCell id="XBNMR6LFCFE2xAtTI4Hr-132" value="" style="shape=partialRectangle;connectable=0;fillColor=none;top=0;left=0;bottom=0;right=0;editable=1;overflow=hidden;" parent="XBNMR6LFCFE2xAtTI4Hr-131" vertex="1">
          <mxGeometry width="30" height="30" as="geometry">
            <mxRectangle width="30" height="30" as="alternateBounds" />
          </mxGeometry>
        </mxCell>
        <mxCell id="XBNMR6LFCFE2xAtTI4Hr-133" value="password" style="shape=partialRectangle;connectable=0;fillColor=none;top=0;left=0;bottom=0;right=0;align=left;spacingLeft=6;overflow=hidden;" parent="XBNMR6LFCFE2xAtTI4Hr-131" vertex="1">
          <mxGeometry x="30" width="150" height="30" as="geometry">
            <mxRectangle width="150" height="30" as="alternateBounds" />
          </mxGeometry>
        </mxCell>
        <mxCell id="XBNMR6LFCFE2xAtTI4Hr-49" value="Posts" style="shape=table;startSize=30;container=1;collapsible=1;childLayout=tableLayout;fixedRows=1;rowLines=0;fontStyle=1;align=center;resizeLast=1;html=1;" parent="1" vertex="1">
          <mxGeometry x="630" y="120" width="180" height="240" as="geometry" />
        </mxCell>
        <mxCell id="XBNMR6LFCFE2xAtTI4Hr-50" value="" style="shape=tableRow;horizontal=0;startSize=0;swimlaneHead=0;swimlaneBody=0;fillColor=none;collapsible=0;dropTarget=0;points=[[0,0.5],[1,0.5]];portConstraint=eastwest;top=0;left=0;right=0;bottom=1;" parent="XBNMR6LFCFE2xAtTI4Hr-49" vertex="1">
          <mxGeometry y="30" width="180" height="30" as="geometry" />
        </mxCell>
        <mxCell id="XBNMR6LFCFE2xAtTI4Hr-51" value="PK" style="shape=partialRectangle;connectable=0;fillColor=none;top=0;left=0;bottom=0;right=0;fontStyle=1;overflow=hidden;whiteSpace=wrap;html=1;" parent="XBNMR6LFCFE2xAtTI4Hr-50" vertex="1">
          <mxGeometry width="30" height="30" as="geometry">
            <mxRectangle width="30" height="30" as="alternateBounds" />
          </mxGeometry>
        </mxCell>
        <mxCell id="XBNMR6LFCFE2xAtTI4Hr-52" value="post_id" style="shape=partialRectangle;connectable=0;fillColor=none;top=0;left=0;bottom=0;right=0;align=left;spacingLeft=6;fontStyle=5;overflow=hidden;whiteSpace=wrap;html=1;" parent="XBNMR6LFCFE2xAtTI4Hr-50" vertex="1">
          <mxGeometry x="30" width="150" height="30" as="geometry">
            <mxRectangle width="150" height="30" as="alternateBounds" />
          </mxGeometry>
        </mxCell>
        <mxCell id="XBNMR6LFCFE2xAtTI4Hr-53" value="" style="shape=tableRow;horizontal=0;startSize=0;swimlaneHead=0;swimlaneBody=0;fillColor=none;collapsible=0;dropTarget=0;points=[[0,0.5],[1,0.5]];portConstraint=eastwest;top=0;left=0;right=0;bottom=0;" parent="XBNMR6LFCFE2xAtTI4Hr-49" vertex="1">
          <mxGeometry y="60" width="180" height="30" as="geometry" />
        </mxCell>
        <mxCell id="XBNMR6LFCFE2xAtTI4Hr-54" value="" style="shape=partialRectangle;connectable=0;fillColor=none;top=0;left=0;bottom=0;right=0;editable=1;overflow=hidden;whiteSpace=wrap;html=1;" parent="XBNMR6LFCFE2xAtTI4Hr-53" vertex="1">
          <mxGeometry width="30" height="30" as="geometry">
            <mxRectangle width="30" height="30" as="alternateBounds" />
          </mxGeometry>
        </mxCell>
        <mxCell id="XBNMR6LFCFE2xAtTI4Hr-55" value="img: null" style="shape=partialRectangle;connectable=0;fillColor=none;top=0;left=0;bottom=0;right=0;align=left;spacingLeft=6;overflow=hidden;whiteSpace=wrap;html=1;" parent="XBNMR6LFCFE2xAtTI4Hr-53" vertex="1">
          <mxGeometry x="30" width="150" height="30" as="geometry">
            <mxRectangle width="150" height="30" as="alternateBounds" />
          </mxGeometry>
        </mxCell>
        <mxCell id="XBNMR6LFCFE2xAtTI4Hr-56" value="" style="shape=tableRow;horizontal=0;startSize=0;swimlaneHead=0;swimlaneBody=0;fillColor=none;collapsible=0;dropTarget=0;points=[[0,0.5],[1,0.5]];portConstraint=eastwest;top=0;left=0;right=0;bottom=0;" parent="XBNMR6LFCFE2xAtTI4Hr-49" vertex="1">
          <mxGeometry y="90" width="180" height="30" as="geometry" />
        </mxCell>
        <mxCell id="XBNMR6LFCFE2xAtTI4Hr-57" value="" style="shape=partialRectangle;connectable=0;fillColor=none;top=0;left=0;bottom=0;right=0;editable=1;overflow=hidden;whiteSpace=wrap;html=1;" parent="XBNMR6LFCFE2xAtTI4Hr-56" vertex="1">
          <mxGeometry width="30" height="30" as="geometry">
            <mxRectangle width="30" height="30" as="alternateBounds" />
          </mxGeometry>
        </mxCell>
        <mxCell id="XBNMR6LFCFE2xAtTI4Hr-58" value="text_body" style="shape=partialRectangle;connectable=0;fillColor=none;top=0;left=0;bottom=0;right=0;align=left;spacingLeft=6;overflow=hidden;whiteSpace=wrap;html=1;" parent="XBNMR6LFCFE2xAtTI4Hr-56" vertex="1">
          <mxGeometry x="30" width="150" height="30" as="geometry">
            <mxRectangle width="150" height="30" as="alternateBounds" />
          </mxGeometry>
        </mxCell>
        <mxCell id="XBNMR6LFCFE2xAtTI4Hr-59" value="" style="shape=tableRow;horizontal=0;startSize=0;swimlaneHead=0;swimlaneBody=0;fillColor=none;collapsible=0;dropTarget=0;points=[[0,0.5],[1,0.5]];portConstraint=eastwest;top=0;left=0;right=0;bottom=0;" parent="XBNMR6LFCFE2xAtTI4Hr-49" vertex="1">
          <mxGeometry y="120" width="180" height="30" as="geometry" />
        </mxCell>
        <mxCell id="XBNMR6LFCFE2xAtTI4Hr-60" value="" style="shape=partialRectangle;connectable=0;fillColor=none;top=0;left=0;bottom=0;right=0;editable=1;overflow=hidden;whiteSpace=wrap;html=1;" parent="XBNMR6LFCFE2xAtTI4Hr-59" vertex="1">
          <mxGeometry width="30" height="30" as="geometry">
            <mxRectangle width="30" height="30" as="alternateBounds" />
          </mxGeometry>
        </mxCell>
        <mxCell id="XBNMR6LFCFE2xAtTI4Hr-61" value="likes" style="shape=partialRectangle;connectable=0;fillColor=none;top=0;left=0;bottom=0;right=0;align=left;spacingLeft=6;overflow=hidden;whiteSpace=wrap;html=1;" parent="XBNMR6LFCFE2xAtTI4Hr-59" vertex="1">
          <mxGeometry x="30" width="150" height="30" as="geometry">
            <mxRectangle width="150" height="30" as="alternateBounds" />
          </mxGeometry>
        </mxCell>
        <mxCell id="XBNMR6LFCFE2xAtTI4Hr-107" value="" style="shape=tableRow;horizontal=0;startSize=0;swimlaneHead=0;swimlaneBody=0;fillColor=none;collapsible=0;dropTarget=0;points=[[0,0.5],[1,0.5]];portConstraint=eastwest;top=0;left=0;right=0;bottom=0;" parent="XBNMR6LFCFE2xAtTI4Hr-49" vertex="1">
          <mxGeometry y="150" width="180" height="30" as="geometry" />
        </mxCell>
        <mxCell id="XBNMR6LFCFE2xAtTI4Hr-108" value="" style="shape=partialRectangle;connectable=0;fillColor=none;top=0;left=0;bottom=0;right=0;editable=1;overflow=hidden;" parent="XBNMR6LFCFE2xAtTI4Hr-107" vertex="1">
          <mxGeometry width="30" height="30" as="geometry">
            <mxRectangle width="30" height="30" as="alternateBounds" />
          </mxGeometry>
        </mxCell>
        <mxCell id="XBNMR6LFCFE2xAtTI4Hr-109" value="dislikes(clowns)" style="shape=partialRectangle;connectable=0;fillColor=none;top=0;left=0;bottom=0;right=0;align=left;spacingLeft=6;overflow=hidden;" parent="XBNMR6LFCFE2xAtTI4Hr-107" vertex="1">
          <mxGeometry x="30" width="150" height="30" as="geometry">
            <mxRectangle width="150" height="30" as="alternateBounds" />
          </mxGeometry>
        </mxCell>
        <mxCell id="XBNMR6LFCFE2xAtTI4Hr-66" value="" style="shape=tableRow;horizontal=0;startSize=0;swimlaneHead=0;swimlaneBody=0;fillColor=none;collapsible=0;dropTarget=0;points=[[0,0.5],[1,0.5]];portConstraint=eastwest;top=0;left=0;right=0;bottom=0;" parent="XBNMR6LFCFE2xAtTI4Hr-49" vertex="1">
          <mxGeometry y="180" width="180" height="30" as="geometry" />
        </mxCell>
        <mxCell id="XBNMR6LFCFE2xAtTI4Hr-67" value="NotN" style="shape=partialRectangle;connectable=0;fillColor=none;top=0;left=0;bottom=0;right=0;editable=1;overflow=hidden;" parent="XBNMR6LFCFE2xAtTI4Hr-66" vertex="1">
          <mxGeometry width="30" height="30" as="geometry">
            <mxRectangle width="30" height="30" as="alternateBounds" />
          </mxGeometry>
        </mxCell>
        <mxCell id="XBNMR6LFCFE2xAtTI4Hr-68" value="comments" style="shape=partialRectangle;connectable=0;fillColor=none;top=0;left=0;bottom=0;right=0;align=left;spacingLeft=6;overflow=hidden;" parent="XBNMR6LFCFE2xAtTI4Hr-66" vertex="1">
          <mxGeometry x="30" width="150" height="30" as="geometry">
            <mxRectangle width="150" height="30" as="alternateBounds" />
          </mxGeometry>
        </mxCell>
        <mxCell id="XBNMR6LFCFE2xAtTI4Hr-104" value="" style="shape=tableRow;horizontal=0;startSize=0;swimlaneHead=0;swimlaneBody=0;fillColor=none;collapsible=0;dropTarget=0;points=[[0,0.5],[1,0.5]];portConstraint=eastwest;top=0;left=0;right=0;bottom=0;" parent="XBNMR6LFCFE2xAtTI4Hr-49" vertex="1">
          <mxGeometry y="210" width="180" height="30" as="geometry" />
        </mxCell>
        <mxCell id="XBNMR6LFCFE2xAtTI4Hr-105" value="" style="shape=partialRectangle;connectable=0;fillColor=none;top=0;left=0;bottom=0;right=0;editable=1;overflow=hidden;" parent="XBNMR6LFCFE2xAtTI4Hr-104" vertex="1">
          <mxGeometry width="30" height="30" as="geometry">
            <mxRectangle width="30" height="30" as="alternateBounds" />
          </mxGeometry>
        </mxCell>
        <mxCell id="XBNMR6LFCFE2xAtTI4Hr-106" value="data_publication" style="shape=partialRectangle;connectable=0;fillColor=none;top=0;left=0;bottom=0;right=0;align=left;spacingLeft=6;overflow=hidden;" parent="XBNMR6LFCFE2xAtTI4Hr-104" vertex="1">
          <mxGeometry x="30" width="150" height="30" as="geometry">
            <mxRectangle width="150" height="30" as="alternateBounds" />
          </mxGeometry>
        </mxCell>
        <mxCell id="XBNMR6LFCFE2xAtTI4Hr-65" value="" style="edgeStyle=entityRelationEdgeStyle;fontSize=12;html=1;endArrow=ERoneToMany;rounded=0;exitX=1;exitY=0.5;exitDx=0;exitDy=0;entryX=-0.009;entryY=0.14;entryDx=0;entryDy=0;entryPerimeter=0;" parent="1" source="XBNMR6LFCFE2xAtTI4Hr-13" target="XBNMR6LFCFE2xAtTI4Hr-56" edge="1">
          <mxGeometry width="100" height="100" relative="1" as="geometry">
            <mxPoint x="500" y="480" as="sourcePoint" />
            <mxPoint x="490" y="230" as="targetPoint" />
          </mxGeometry>
        </mxCell>
        <mxCell id="XBNMR6LFCFE2xAtTI4Hr-69" value="Chats" style="shape=table;startSize=30;container=1;collapsible=1;childLayout=tableLayout;fixedRows=1;rowLines=0;fontStyle=1;align=center;resizeLast=1;html=1;" parent="1" vertex="1">
          <mxGeometry x="21" y="120" width="180" height="150" as="geometry">
            <mxRectangle x="541" y="340" width="70" height="30" as="alternateBounds" />
          </mxGeometry>
        </mxCell>
        <mxCell id="XBNMR6LFCFE2xAtTI4Hr-70" value="" style="shape=tableRow;horizontal=0;startSize=0;swimlaneHead=0;swimlaneBody=0;fillColor=none;collapsible=0;dropTarget=0;points=[[0,0.5],[1,0.5]];portConstraint=eastwest;top=0;left=0;right=0;bottom=1;" parent="XBNMR6LFCFE2xAtTI4Hr-69" vertex="1">
          <mxGeometry y="30" width="180" height="30" as="geometry" />
        </mxCell>
        <mxCell id="XBNMR6LFCFE2xAtTI4Hr-71" value="PK" style="shape=partialRectangle;connectable=0;fillColor=none;top=0;left=0;bottom=0;right=0;fontStyle=1;overflow=hidden;whiteSpace=wrap;html=1;" parent="XBNMR6LFCFE2xAtTI4Hr-70" vertex="1">
          <mxGeometry width="30" height="30" as="geometry">
            <mxRectangle width="30" height="30" as="alternateBounds" />
          </mxGeometry>
        </mxCell>
        <mxCell id="XBNMR6LFCFE2xAtTI4Hr-72" value="chat_id" style="shape=partialRectangle;connectable=0;fillColor=none;top=0;left=0;bottom=0;right=0;align=left;spacingLeft=6;fontStyle=5;overflow=hidden;whiteSpace=wrap;html=1;" parent="XBNMR6LFCFE2xAtTI4Hr-70" vertex="1">
          <mxGeometry x="30" width="150" height="30" as="geometry">
            <mxRectangle width="150" height="30" as="alternateBounds" />
          </mxGeometry>
        </mxCell>
        <mxCell id="XBNMR6LFCFE2xAtTI4Hr-73" value="" style="shape=tableRow;horizontal=0;startSize=0;swimlaneHead=0;swimlaneBody=0;fillColor=none;collapsible=0;dropTarget=0;points=[[0,0.5],[1,0.5]];portConstraint=eastwest;top=0;left=0;right=0;bottom=0;" parent="XBNMR6LFCFE2xAtTI4Hr-69" vertex="1">
          <mxGeometry y="60" width="180" height="30" as="geometry" />
        </mxCell>
        <mxCell id="XBNMR6LFCFE2xAtTI4Hr-74" value="NotN" style="shape=partialRectangle;connectable=0;fillColor=none;top=0;left=0;bottom=0;right=0;editable=1;overflow=hidden;whiteSpace=wrap;html=1;" parent="XBNMR6LFCFE2xAtTI4Hr-73" vertex="1">
          <mxGeometry width="30" height="30" as="geometry">
            <mxRectangle width="30" height="30" as="alternateBounds" />
          </mxGeometry>
        </mxCell>
        <mxCell id="XBNMR6LFCFE2xAtTI4Hr-75" value="type:bool" style="shape=partialRectangle;connectable=0;fillColor=none;top=0;left=0;bottom=0;right=0;align=left;spacingLeft=6;overflow=hidden;whiteSpace=wrap;html=1;" parent="XBNMR6LFCFE2xAtTI4Hr-73" vertex="1">
          <mxGeometry x="30" width="150" height="30" as="geometry">
            <mxRectangle width="150" height="30" as="alternateBounds" />
          </mxGeometry>
        </mxCell>
        <mxCell id="XBNMR6LFCFE2xAtTI4Hr-76" value="" style="shape=tableRow;horizontal=0;startSize=0;swimlaneHead=0;swimlaneBody=0;fillColor=none;collapsible=0;dropTarget=0;points=[[0,0.5],[1,0.5]];portConstraint=eastwest;top=0;left=0;right=0;bottom=0;" parent="XBNMR6LFCFE2xAtTI4Hr-69" vertex="1">
          <mxGeometry y="90" width="180" height="30" as="geometry" />
        </mxCell>
        <mxCell id="XBNMR6LFCFE2xAtTI4Hr-77" value="" style="shape=partialRectangle;connectable=0;fillColor=none;top=0;left=0;bottom=0;right=0;editable=1;overflow=hidden;whiteSpace=wrap;html=1;" parent="XBNMR6LFCFE2xAtTI4Hr-76" vertex="1">
          <mxGeometry width="30" height="30" as="geometry">
            <mxRectangle width="30" height="30" as="alternateBounds" />
          </mxGeometry>
        </mxCell>
        <mxCell id="XBNMR6LFCFE2xAtTI4Hr-78" value="rapist(comrade)" style="shape=partialRectangle;connectable=0;fillColor=none;top=0;left=0;bottom=0;right=0;align=left;spacingLeft=6;overflow=hidden;whiteSpace=wrap;html=1;" parent="XBNMR6LFCFE2xAtTI4Hr-76" vertex="1">
          <mxGeometry x="30" width="150" height="30" as="geometry">
            <mxRectangle width="150" height="30" as="alternateBounds" />
          </mxGeometry>
        </mxCell>
        <mxCell id="XBNMR6LFCFE2xAtTI4Hr-79" value="" style="shape=tableRow;horizontal=0;startSize=0;swimlaneHead=0;swimlaneBody=0;fillColor=none;collapsible=0;dropTarget=0;points=[[0,0.5],[1,0.5]];portConstraint=eastwest;top=0;left=0;right=0;bottom=0;" parent="XBNMR6LFCFE2xAtTI4Hr-69" vertex="1">
          <mxGeometry y="120" width="180" height="30" as="geometry" />
        </mxCell>
        <mxCell id="XBNMR6LFCFE2xAtTI4Hr-80" value="" style="shape=partialRectangle;connectable=0;fillColor=none;top=0;left=0;bottom=0;right=0;editable=1;overflow=hidden;whiteSpace=wrap;html=1;" parent="XBNMR6LFCFE2xAtTI4Hr-79" vertex="1">
          <mxGeometry width="30" height="30" as="geometry">
            <mxRectangle width="30" height="30" as="alternateBounds" />
          </mxGeometry>
        </mxCell>
        <mxCell id="XBNMR6LFCFE2xAtTI4Hr-81" value="caht_photo" style="shape=partialRectangle;connectable=0;fillColor=none;top=0;left=0;bottom=0;right=0;align=left;spacingLeft=6;overflow=hidden;whiteSpace=wrap;html=1;" parent="XBNMR6LFCFE2xAtTI4Hr-79" vertex="1">
          <mxGeometry x="30" width="150" height="30" as="geometry">
            <mxRectangle width="150" height="30" as="alternateBounds" />
          </mxGeometry>
        </mxCell>
        <mxCell id="XBNMR6LFCFE2xAtTI4Hr-103" value="MongoDB" style="ellipse;shape=cloud;whiteSpace=wrap;html=1;align=center;" parent="1" vertex="1">
          <mxGeometry x="375" width="100" height="60" as="geometry" />
        </mxCell>
        <mxCell id="XBNMR6LFCFE2xAtTI4Hr-110" value="" style="edgeStyle=entityRelationEdgeStyle;fontSize=12;html=1;endArrow=ERoneToMany;rounded=0;entryX=1;entryY=0.5;entryDx=0;entryDy=0;exitX=0;exitY=0.5;exitDx=0;exitDy=0;" parent="1" source="XBNMR6LFCFE2xAtTI4Hr-10" target="XBNMR6LFCFE2xAtTI4Hr-70" edge="1">
          <mxGeometry width="100" height="100" relative="1" as="geometry">
            <mxPoint x="230" y="390" as="sourcePoint" />
            <mxPoint x="330" y="290" as="targetPoint" />
          </mxGeometry>
        </mxCell>
        <mxCell id="XBNMR6LFCFE2xAtTI4Hr-111" value="" style="shape=image;verticalLabelPosition=bottom;labelBackgroundColor=default;verticalAlign=top;aspect=fixed;imageAspect=0;image=data:image/png,iVBORw0KGgoAAAANSUhEUgAAAbsAAAHoCAYAAADQc0FHAAAAAXNSR0IArs4c6QAAAARnQU1BAACxjwv8YQUAAAAJcEhZcwAADsMAAA7DAcdvqGQAAJsRSURBVHhe7d0FuHVF2f/xUUSkRLpBurtLOgRppFFC2r8oWCjqyyuCKIoKiHQoLS2h0t0h3UgjIGBg+/79jOeG9Wz2Oc95znNyn/t7XXPtc/ZeMWvWzP2b+55Zs97zf/+hJEmSJEkH896uzyRJkiTpWFLskiRJko4nxS5JkiTpeFLskiRJko4nxS5JkiTpeFLskiRJko4nxS5JkiTpeFLskiRJko4nxS5JkiTpeFLskiRJko4nxS5JkiTpeFLskiRJko4nxS5JkiTpeFLskiRJko4nxS5JkiTpeFLskiRJko4nxS5JkiTpeEbkm8r/+c9/lueee65+JoPHpJNOWmacccau/5Kkf/jzn/9cXnrppTICTVEynrznPe8pM8wwQ7UtA82IFLs//vGP5fjjjy9/+9vfygQTTND1bTKQ6FjMMcccZeutt+76Jkn6h0cffbScddZZZaKJJqrGLxkdkB42fKuttirzzjtv17cDx4gVu+OOO66svvrqZc455+z6NhlIbrnllvL73/++bLPNNl3fJEn/QOwuuuiiWrcmm2yyrm+TTudPf/pTOeOMM8pGG22UYtcdIXYf+9jHBqWQklKuueaa8uKLL6bYJf0OsfvFL35Rdt111zL55JN3fZt0OoNtx3OCSpIkSdLxpNglSZIkHU+KXZIkSdLxpNglSZIkHU+KXZIkI46//vWvddr6v//9765vOod//etf9fqkpP+Y4H/+Q9ffI4a///3v5a677qozeKaeeuqub3vGc2JmfZ199tnlrbfeKlNMMUWZeOKJu379Lw8//HC57rrryhNPPFGfKXvve987aM/9mBTrvD/72c/KY489Vq/rgx/8YNevQ8/TTz9dpwovssgiXd8kSf/w2muv1ba51FJL1Wft2qH9vvDCC+Xqq6+ubfSKK64oN9xwQ7n33nvL888/X6abbrry/ve/v7bZweZXv/pVefLJJ6s96etsUqL95ptvlssuu6we76qrrio333xzefDBB6ttcNzuymak0hc7Pj6MGs9Ob+nZZ5+tz3Wccsop5amnnhqjV6gxaUAebvVM2WD3GAnJHXfcUb7zne+Uww47rDz00EO5QkySdKHt/vKXv6yLSVxwwQVVDH7961+Xc845p5xwwgn171dffbVr68HlwgsvLBdffHHNY1954403qrideOKJ1UZdcskl9XGMk08+uZx66qm1I/6Xv/yla+ukL4wasdMrmn/++cuWW25Ze4cqj2WKQAg1FN/z+DbddNNBX83hmWeeqb1DPRxCLOnpJcloR6ePt3P00UfXdrrjjjvW57MIwZ577lnDfQceeGD5zW9+U9vySOTxxx8vRx55ZH32bIcddihHHHFEOfTQQ+vCGaeffnoVc8+5Jn1nVI3ZWYNt/fXXL3PNNVe58cYby913312/F9Y888wzaxhkhRVWKAsvvHD9fjARuiR2yy23XA0VEuNHHnmk69ckGb088MAD5c477yxTTjll+cEPflDWXXfdMuuss9b00Y9+tBiJ+cc//lHbjDU2RxrClK+//noVPMvxsVGLLrpoWXbZZcvOO+9cllxyyboWsA5x0ndGzZgdrKPJY5Nuuumm8r73va/MPffctYHoSa2yyiplrbXWqvFx42fCCD/96U/rUkbCimLyzuc4xguuvPLK+t2HPvShOlZAsHwvzv7hD3+43H///eXWW2+tq48YKxSPn3766cs000wzxtiCgfbLL7+8iu/aa69dj+lYxiEWX3zxrq1KOe+88+rxjFPo1cqXsY4PfOADVciVi+uKcwqtCMvec889ZZJJJqleK0HvCzlmlwwUYxuzU5e1B21VZMaSYtpgtGftlWAstthiZeaZZ66LCmsLhgW0AWFBn86h/WkL2r7l77SXn//859V7Ehr93e9+V2aaaabaBkV2XnnllbfDi7bhPUryg6mmmqq2Xe2ZQDm/c/NEjb87t79ffvnlajvktV3EiNCxN0svvXTtbNt2wgknrHllX9g6nXTfsxeGWk477bR6DuFd+bFIu+15umEjHFdHXmfB38Y7F1xwwbfLmYgqm9/+9rf1PK6XnTr22GNriPj222+vnvW0005bbYd75XvHUXaO7Zrspxx43H5nB3nZbE53izwP9pjdqBI7aCBEhADoTQkb6BGqjBtvvHGZb775asVRiYQNNAo3zSA4EZtnnnlqY9MA3VAVUAW3HUFUAVSg5Zdfvp5DRZRXjcE4oAZNmJpix6Oz3R/+8IcaotGArr322ipiGlBUFnlSyTRIldrvRJkIqagmtNhPoyFOGqy8Gksg6Cql3nBfwrMpdslAMTax06nTVnk4vJ1m/fU3I8zQzzbbbNW4GtvS0SRO9tM2CYS2ok3PMssstU0TjHPPPbcKJWExbsboy48hD99rT4y/tqmN2UZ7NsygQzv77LNXMQux05E1HBJjiNofseCdOgfv1HGauAZDFo4pj84vOSes/6vdsnU8WBGfk046qYo1OyCf2ie7wBY5jw7vT37yk3pu5cGmsHVsw6qrrlpthfMqJwLFjrEX7Jf8K1PbEDFl5hxsn2syRsq2yYvrJp72YR/jGm2nLB3DsdvZnMEWu1EVxgSx03PjwakIekc8NOuzEToVQ29Gb8+MzF122aXsscce9TeCpJenwttOZXTDVAT4myBIvtPAhB5su8UWW9RYvAYiD01UHBVXpdbINGgVxr4aSeC4RFfjtY7gZz7zmdrA9eKIr3M6F/EmhM653377lZVXXrnmmzgL2SbJSMIsTB1FXlmgLfBUGHVeC1GT1G9GX1v1G0OqDX/qU5+qRld755lpMyakaSvGxT796U9Xr1Hb5MXpsOokajM6sTrCn//858s666xTz+/c7R4NICiiQTqX2t3ee+9dtt9++3pcgkBc2qEdW/2fDeFh8pgkk3HYAOJMgIiI32+77bayxBJLVNukg8x28CLllQ1QPvJPRMxB2GyzzaoNkz95IK62IUiuxW8E8/rrr6/7f+ITnyj77rtvvV42R4eDvSNw7odP599pp53qvu6BYwrBfvazny0f//jHa35DsIcDo07sAjdRb0lvyo1bb731au+QwOg56X25YW7kQgstVBuEMArPihfYW1Q2oUjHX3HFFauINdGI9W7kwblUNL1blZeoqtQhpvC9cCtR1EP9yEc+UntTGnCgd7nMMsvU8zk/0XNMFXtc8p4kwwEGmrHXgQvUZbOq99lnn5pMVPne975XhwKIHZHiCRIc7Upo0CLmJqUROL8z7tq1dsJD065WW221aswJgjAoz4ZIMuLE1hihtsWQtyKPjDsb4Xg8IR1Tbd5xiQ9haYc2a/X/Y445pnZknYtYH3LIIVUwhQh5e9ovb5M3xRYoE8dfY401aoc5PEM2w2/bbrtt7dgrA/mRd96b61KGoko64Dr2rllnQThY9IvwKkORqNjWNTo2odM54I0LcbKXzqv82VAddpOGNtlkk7Ze3VAwasVOaFBvyk1zYyJGr2ERHpWJiATc8QUWWOBtb663CGO0ClxA6PTUuP8aiNlmG264YU3G53iYKo8GGoKn4qnkAcEmZI4Tj0v43XYQZpB3/zuGSp4kI4kIvfMwAmJgfJvI8WwY7PBoeFwMv/YqrIkIr2nz2jfPS2RHRzbaOXFguEV+eInOp205f0C8CIFwYSsiOdqX4wqPiqrw6niWRx11VBUMbTDacqDd2lfeHZugfvWrX60eIu9OeNS4Gq/LtRFNE+xs4/i8sC984Qv1WI6jHJSXvBLRCA0rM51j4VsdAqFjHiwxtI0yI3innnpqPa7EcxOm9bvOt7w6NrsW4Vg2hkCbXCfku91221VP8oc//GG1bcOFUSt2bpBKroKH0CEqvsoQ4gGViKC4wXp1tldpNZzANvE4QyB8odK1w/Yqngq85ppr1rCkUKckhGBmqHg57y4EVkVuhgY0So1L5YtrINi2gzw6vhCD3wlfkowkeB3amXAez0OdJmLGjwke74yIabvarDYXHUBtDCEo2ov2rh1rD8Qp2jmvJdoXYeSdOZbjBLbVvhj+VmwbtsS4GCH+0pe+VL785S+Xr3zlK+Ub3/hGzWu008DxicQBBxxQz60tEz0CHlGheJu7c2jDvC8i6vjS/vvvX2elEi6CDedhe+J8rtnx2AvzEniuBI5XyA4qM9dMbOO48v61r32t7L777jUkHMeTDwnKRAeBZ2p7wsuDNLTCIx0u0aRRK3bdoaJIXHE9H70tlVvIw/+8JhM9VAyNTi9L5dEII87fRMVordyBxieOrxJqtJtvvnl1+yUhVKEPwmpMMcYH9DaFYZxPw9QTYwgYhDiPMIz8Cis4hzHBaMDREJJkpCCURsyEAHlMQnXqNQOt00oEtDtGl+ARA+1U2/C9tsKoR5SEkAjrEUxjTQTP8WyrbTmO8/GoCI/wnWOxAwTXNu2egXVubZnXZz9hQ0KlI0sECUUIRBPfOR4PigfnOrVtdkV+5d3+JqO4NqJDmB2fuBFQIqW9y4Nt0Wp32CzeHY+X0PG6TFwxPCNvjsFGOI/w7wYbbFAjX2wQO+g35d0kOvy8Th1z90p4U3SKzWJHlf9wIMWuBeN2QhsawqWXXloHsYmNkKKK5Ga66SqNii3+7Ubrxag8GkRvUFn1Mnl2hCpmckXSIPXeNDrHt6199AI12siXxiofQrGBBnLffffVxiO+b4UHxzRuIe9JMpLgwQm/qbtnn312nVFotqNJKMTB5AmCINwoXK/t8Kx8p+1EW7GP4QnGXTv2tzF7x9Hp5IWY4MErYfgJpm0ZdCJrfx4YMSJQrYbf/9FxZfid13ENUcg3G0KQWiE4BEh+tFWTUrRdeZY3NobAEWidVWOLcW22YXuUgb/ZB/ntDkIof+Yl6ACzO8SNMBI2x2fH2D7jmspEMicgPOBWfG/egbKRBx0Dnq9jxeMQw4FR9+hBEz00cXQueEx7llRYYnfqqafWhqXi6WkZG9BT07tyA/V2PMdmG6KiB6TC+lQhHZsLrzKLZzchSCqc6dE8OiHL6JEFxFXj0Gj0DjUW59QLNKtMhZQPnqBemJ4gL845eXZmbcmbhrfTTjvVSTndPfMyNhzPufPRg6S/Ucd7evSAiOgQEiBelvZo5qHnuXQWeRbGl0zGIAjquG3Ve8IR2+ksChUK5ZncpY07ntmX2okOov2EBAlneGrEw+zs888/vx5DEt3xeJF8ETNtXtuwPxtANC35xT6wDdqpsTV2wHGbEBqdUddvyEJejNXFc7WuycPlnsFzXh1gnV/XRoSJIXERarSN4xNk3hubxcsMlKVzESV2zyzTGH/0Pw+PWJk/wO74myDy1pSZzrx9XTfvT96dT5mzZzGDVFkpZ8dXHu3oLzveW97znxvZfTdgmKLA++N17o5DdDQwFT96as3wgUqkAoQAqji2sw3jLwRiGwKoIkZM281zDK6871o9Kr0hoRMN0raO2xricA55VLH1kL74xS/WCmIFCbMxNTrnJab2dz7P36hAGpXwhu+cWwXX4NqFUXqD3qO8mtGWJP0JoWPgTXLQhtrBTKn72po2pU34TgeRodUOfGpr0DZsIwmjabPagbamvftf+4ttHFNY1DbaEwOuUykMpw0RAsf0vfU5CYkJIgQqxsPl3TG0W8dkPxzX+bRPx5Vf27biWog24dexdkzHkR/7sj+OY1/5UA6SvLkWv0vRYWabwtuNMgkcV4eYLbCPPAeO57jOL+/K1TaujaDb13wG53E9gTyzVfbzydbYj81s7cQH/WXHe8uoFrveoIFF76Udik+j8XtfhaS3mGLtfHpZPEF/O2c0HhWc2Ak58OJ4jBqQStqugY0LKXbJQNEbsWtFvYb6H53UduhUEgd014b9LjlWsw0TSR6dzqOIjvCoaJDQIgE5+OCDayeyu3bvmM4vf91t0x2uz749tV3tn/igu2vrC47r3I7tuD2Vbyv2k/fe7DfYYtf7qxilqGw9VSQVUc9oXCtzXxBGkMILDC8yULnEyfXm9Kr8H73BJOkktMneGFS/x7bdoS1p561tWNvhCdo3xsl1JLUv4teT0MFv9u1pm+6w39jart/Gdm19wXHl2fnHVr6thM0Z1/0GgxS7EYRJKMKTepjtUOmFNz0ka9pykiR9h8EXQTEzmrCJ4Ji0YoycN9IXEUuGjhS7EYQZZpLxg3YQO4PCpiOblpwkyfhhXEonU4jV82a77bZbnQTS3ThUMnxJsUuSJEk6nhS7JEmSpONJsUuSJEk6nhH96IFYuplRw52Yymsqs5mb/T17ajDwsLr856MHSX/j0QMrh5j04fms0QCb4Nk0k1zMqh6Nk13YE4+cePA8n7PrBs+TeQsv0RsJ2Q+hIxhmS5rZNdIwHdmkF68LSpL+xGofVjkZgaaoz3gWzTN7HtpmD/q6stFIh10x29WybAPNiBQ74uEpf58jAQ+mW25rr732Kl//+tfrOn8jEc8iaZxJ0p9oH803eYwG2K+DDjqorldraUHvzButsClsy0AzIsVupKEx673yig4//PC63FeSJKMXS3l5FU48KmQh6GRgyQkqgwR3PfsVSZIEaRMGlxS7QUCl5qZbzLm56GqSJKMTy2lZiiwWj08GnhS7QcBMK2tVxmsykiQZ3ej0Wg0p3zE5eOSY3SBhBXSvv7CI82AMxiZJMnxhds0q59W1W4Q66X9S7JIkSZKOJ8OYSZIkSceTYjdIeBHiCy+8UFdNSJJkdOMZYW8ztzBGvIg2GVhS7AYBFdtDs2eccUZ59tlnu75NkmS04t14N954Y7nvvvvqM3fJwJNiNwgYFtWDI3bPPPNM17dJkoxWLDRx00031Tefv/baa13fJgNJit0gEA+Pvvrqq7VHlyTJ6Ea0x2xMa+ZmGHNwSLEbJHK1hCRJAvYgbcLgkmI3CKjUnqfJFVSSJIEVVKaaaqpcQWUQSbEbBIidlb233XbbMttss3V9myTJaMWD5CuttFJZdNFF67JhycCTD5UPEmL0Zl3pyU000URd3yZJMhphdv/85z9XD4/wpXc38KTYJUmSJB1Pil0/09/FKQSaJMnIZCDMa9qEvpFiN55E8TWLsV2RWgj6d7/7XX37wcQTT9z1bc9EpW6t3FnZk2R40drmx2YPDGt49lYY07BGbxeHb2cT0h70jhS7PtBaZCqu77r7Hir2cccdVzbYYIMy77zztq20gQYQ+L2ZmrTbN0mSwaOd+WxnD1r/t2zgDTfcUDu+c8wxR5lpppm6fhmTdm2/9bvWz6Q9ORtzHIkK61Ol5rE1kwdErY4g+duamD693uess84qTz755Nu/Sx4yl5r7RLJv89jO1xTQZuNJkmRwabbDVnug7Ubbl6JtR5s3OeXWW28td999d3nxxRffbv+R2u3nsyebkPagZ9KzGweaFSoq2RtvvFEOPvjg+hm/NYs0/taTu+yyy8oyyyxTX+DaXS+s+b2/TU3ec889q7cn+S4+Y9vmPkmSDDzNth6JPbC4c9iD+L1J/E+8HnjggRq+nGGGGXp8/KDZvv1tKOTLX/5yfelrO5vQ3D55hxS7cSAqdPSkfD7//PNllVVWKUsssUT58Ic/3LVl/3D77bfXRsAj9HLHELxIzYqdFTxJBocwmT7DDvjkaXmzyUDZAzz99NPlrrvuKtdcc02ZeeaZ32UXwiakPXg3KXa9pFmxm+GD5557rqy22mrl2GOPLRtuuGHX1v3DgQceWG6++eZy2mmn1UrdmpoVOyt3kgwOYTKbIhd2Qed3oOwBLr744rLbbruVK664ooqd5/PYgqbgheglY5Jjdr2gKXRRwX1GXH4gcZ4Y02uKrL+TJBkaWm1C2IKBtgdwXvagdRxPPiJfUjImKXbjiEqkYqlgUdEGsmI5F7FzrmbFds6s3EkyuLS2s+h4StonARqMthhCJzl32IL4TN5Nil0viYoUlTvETqUbSJzP5Jbw7pq9uKzYSTL4NG2BNJj2AM7/17/+dYxOcFPwIiVjkmLXS6ICtavcA1mxnCvErlmxpazUSTI0hC0YbHsAx2cPwiZEBzhtQs+k2PWCqEBRuaWo3NJAogLrxWlE4dlJkY+s3EkyuER7C5ugjYbQDabYjc0mDHQ+Rhopdr2kWYGiJxdpICuVyhu9uDif80elTpJk8AlhkbTHsAkD3fmFdt8UurAHkdIutCfFrpeoQFKzYkUFH0iiYrcKXVTqSEmSDC7aXast8DkY7bHVqwu7kHRPil0viMobwhIVXCXTkxvIyu08ES5tVurIy0CeO0mSd9Nse2ELQuykgcZ5W+1Bq02QkjFJsRtHmpU70kDiXN1VbJ9JkgwN0QYjDYY9COJckZr5SLFrT4rdWGhWmvg7KnlUtIGsWI5N6OJ8UZlHU6Um9q+99lq59957y5133vl2smyS7x5++OHyyiuv1PIZibiHQlLejGEyUne4PuVg296iXCw+biFydSbpf5RrpIG2B3B855HCNoQtiJS8mxS7cSAqUrNyD0bFap4rPgfjvMMFBv6iiy4qa6yxRll66aXfThbVXnvttcsnP/nJcs4555Q//OEPXXuMLNxT7zq87bbbylNPPdX17ZjY5k9/+lMtB+sv9pbzzjuv7L///uW6666rk5yS/qPZDqONSoNBiF2cczTZg76SYtdLuhOYga7czhkVezRXaGv9TTrppHW199NPP72mk046qey9995lsskmKxdeeGH52c9+1rX1yOKtt96qi317vxnRawfPzCthbGc91mRwCO+plbAHzTSYYtd6rshD0j0pduNIVKio3ANdwZrnaf0M/N38vxMhdhNOOGFZaqmlyjrrrFPTRz/60bLVVluVj33sY/V37wZjnEYa8kzkCFp3IUoGl+dqu/TQBg8LLn/9618vRx55ZPW8vcKnKTIYirYXbX4wbFCnMMH//Ieuv5NuUKGk8LBidiSj471Vl156adlkk03KfPPN17VH/3DttdfW8agVVlihfOADH6jJ+68YfZ+x4nmset6pK50L3z3xxBPl+uuvL5tuumlZZJFFyiSTTFI9vWmmmaZu8+CDD9Yxr80337yWhZdjPvTQQ+Wmm26qr0p69NFH672LcmQgCMh9991XPaZ77rmn/Pa3v63nsnK9391fvzmefZS3czz22GN1W+f3vX0c/8Ybb6xjiX73nfeOuVfuC2/sjjvuqN7bb37zm/Lss8/Wczi2a7Oa/csvv1wmmmiiMtVUU5Vpp522Xhfk06tdfvGLX1RBn2KKKcp0001XX/9kdZ1HHnnk7XHMxx9/vHqK3nWmXvhOaNR7Eeecc85qrF2z4zmP/PVUVq5ZHZfv3//+9/Vct9xySy1v5+FV265TOffcc8vRRx9d26FwuvvoPrl2ZeP+uT86KWEPvLdyIOwB3JsLLrigrL766rV+KXu2INJosQl9IcWuF0QPqil2KrekNz4YYuf1/So2Y9is2FG5O7lih9gpD43cq00YFpM5/GYCBuOrfMLLM3nF+JbwptckETP3ilB4WaZ7SpTOPPPMcskll1QhUtbEwrFsx6B9//vfL9NPP31NxI0QOi5RmGuuucoHP/jBaoCEFx2HYJg0wwMjJvaT16uvvrq+qsl7yAgWwVOn3Ff7EztvrJYvQrfQQgt1XX2p+xOoU045pZ7fNc8222xl9tlnL/fff38975VXXlkFybFfeuml+vvkk09ez0PsFl544SqQBPnyyy+vYksAlZl9uisrokkYvW5K/lzbr371qyp4BJ+Ayq862Im4X8pLmXrZqvuoTAm/e6UO6nAQPLZBudl+MMWuaROaQpdiNyYZxkxGBAyLTgZB4m0xyjw9Df8HP/hBNUbLLbdcbfCMz1FHHVWN+LbbblvOPvvssvvuu1exNGHDtjw0QuZ4vMEf/ehHNSzqeASE0DFktiUuDBnkgXf06quv1s7OM888Uz0uornDDjuU448/vuyyyy51v//93/+tPX3nMEGEESJ4vIUll1yyCjLDKSTLeK277rpl++23f9d70Bi0xRZbrI5PErEvfelLZbPNNqti/Z3vfKeWhf8PPfTQstFGG9VyOeGEE6oYBfJK0H/yk59Uw6xcQoh7KiuTYZQnsVUuylhZ7bXXXvW63QuGv9NR/5SDekH0TjzxxHo/dt5553LcccfVsulpJm0y9OTLW8eC4mHoGAiGQVLhGUAGk0H59Kc/XSdLDMTLWxkznkj02KLX5lOvrdl767Re3Pe+97361mfCobdscsocc8xRQ5dCb6bVC6MRCy/M5A3xtHgv3/3ud6vn4kWXesDuFSNtP9svu+yyZf31168iseWWW5a55567ek377rtvFUyGn1djJiOjttZaa9X7IIzHw5Knz3zmM1XsiJf7sN9++1Uvx7mEspyP6PjN5Bn7fvazn63jjuqRusV74p0ffPDBtY4RXDNMW++la+VVHHLIIbVOKBfnkF/iRyiJF8+U8Io2HH744dUTIFrzzjtv9cZcM+9XKBhjKyvn4cEqJ+fRMXCNymqbbbYpW2yxRf1tnnnmqceDciC4nQCxl1rNpPsjuXc8eF6/Domy2GeffQbEHkAEwOxjHSlvQne/ePDagTyElyc8LW/qXvJfUuzGwlCLHU+BoRXuMk6ll68yq9Qqs0qtQjdFr1Ng+DXoELtvfOMb1XtiVJQ/w86Qb7DBBmXrrbeujyMw0Iy9N0UrLx5UwDthEDzCsOKKK9b79a1vfasaKKIjBHXYYYdV40YQeiN2vDP3SPkvscQS9d6oM8KEvDbiJITI+/r1r39d65J7yEPjJcmzfWzHawyxa4XY8baIInFyLiJr8gQDSOjVER4nUWRweXFESf6ETB2D50iklGFvymrVVVetHQNjpTzAjTfeuNY5x1Lma665Zg3ZLbjggl17lirCQp+dgGvRcQjPHtqZ+639KaMFFligdgiELYWWU+yGJyl2Y2GoxU5YTe+d4Y2KrVJLEa9XscPj60QIyy9/+cty0EEH1VlxvJgIIfL+jI/x1ogWg8+Lcj+UFS8qcO+MW/FqfDLc3/72t+t+PEKzHY844oh6T4lOiN0ee+xRz0nsjOcJWwlPMmpCg8TEvQixg/rCKDo2Y+gabGt/QqD+zDLLLFVECca4ih2x8mzhN7/5zWqQ559//loXTKLgVRFi4mRCxamnnlq9D9esDJxDvtTtsZUVoeZJEzvXGXU8hJNHLXTaHGPsJJQvYWEDiAdMDCJqEi+XVyvioA7pXKTYDU+yJJIRiQbNOxJ6Y5ivuuqqOmmEwBAlnhpD/NWvfrUKGg/O+AoDxKNi/BkJgmniBWOmE2OyC48HDAWjQQSJq210cGJ7MHCMDq9ImJVo6aToAPE4iYVtpcUXX7z+Jj8f+chH6qQbkz3CU4hZv+1o3YaoM3Q6OQSU+DqH8UQzKwkVA2gfE3q222676qEaVxLO5KHad2xlRcBHM8pdHVBGQt3uoY6VcdmvfOUr9Z6LAqgDtkuGLyl2yYiF4DE+vC6ehhmRPCoeCsNjVqEJFETAJApeEc+Q50bsCBShEG4UwuRxxbNUcXyCKKRHTHhjxJCoEj8wcsbKPI9lwgjBJGJCncauTFM3QcX0dRNp7DfrrLPWMTIiRIwYVOJFiKR2wRbCxHs0SYK468HzDAk+z86MS9cgD8KYQmrEMPYlfEKNPElifcYZZ9SevzBqT2XlWkYz7ov7JZx7wAEHVG/avRQKVvbKNhkZpNglIxpCwQNhtI3hCcsJ5/BMGHhP1ghX7rjjjtWoCxkKKxIxk0V4ZozXxz/+8ToBwz4MHBgz4T5CwFNj4Bi7lVZaqYoNHEsYj5AQNxM49PYJqlAiIRRyXH755atgmtAhJEhMnMt55Yv4ERaCKPzYijE1Rle+eWC2mXHGGes1CF06p7wK6zqnc/NEAuUk8ULk2exBITHH66msmmNxo5GYoWpSUISylU10UpKRQz5n1wv0tIWOIhyVz9kNLq6NUTajkKgJKTUhbsaVlD/jHGMpM800U/2b9yUcp3fu07aOybvzNxEhDATH95IxMCIVxzEBwbgU0TJDUXhSfnhP8uMYxNH4jeOYAGNb53DfmtvID+9Tfowfyj/RZUgJUVxDE3lSB+TFdcqb8/vffo7pe+uFeozBdTqufeTdMY1BKkd5cr22t68y6Kms5N/3wr/hLcqP33jWris6CJ2G8lJGxul0OLS1CCWzBSIJ7EHYBB2aoXzOLuxBp9uEvpATVMaC4olKLXwk5QSVkYP7JvSnvLorH/c0OjHHHHNMDVXqxfPAoA645wxJeHTtcAzHci+62842jkUcHK9JGFEGyjG6g1F1Lc39I/ypLrQet7f0pqxGO8o4BM59iGfvjPOyB0LhOUFleJIlkXQ0Gjxj0FOjZyCi106EGA0GIyA+YUh6wv6O09N2tpGfdoIUAtaT0CF68E10fNoJ6LjQm7JKkpFK1uok6YKxF74UYjR5JEmSziHFLkm64DF5gNrU8uaKIEmSjHxS7JKkC+E7E0lMvBC2TJKkc0ixS5IkSTqeFLskSZKk40mxS5IkSTqeFLskSZKk40mxS5IkSTqeFLskSZKk40mxS5IkSTqeFLskSZKk40mxS5IkSTqeFLskSZKk40mxS5IkSTqeFLskSZKk4xkSsfMCxHhRZbvk9yRJkiTpLwZN7NoJnLc2d5e8Ddhnil+SJEkyvgy42IXIxScB+9vf/lZeeeWVcskll5STTz65HHnkkeWoo44q5557brnrrrvK66+/PobwhTim6CVJkiR9YUDFjjiFyIXQvfnmm+WBBx4o559/frnxxhvLfffdVx577LGa7rjjjnLRRReV2267rbz88stve3dNwZOSJEmSZFwYMLFrFTrCxaN7+OGHq9CddtppZeqppy5rrrlm2XHHHcsOO+xQFlxwwfr7hRdeWG666abq4TXDmVIcN0mSJEl6y4CIXavQSQRL6PLss8+uHt3BBx9c9t5777LBBhuUpZZaqiyzzDJl++23LyeccEJ57bXXyvHHH18uu+yyKnb/+Mc/6mfzWCl4SZIkSW8ZULELwQvB+vnPf17/JmpLLLFEmXTSScv73ve+MsEEE9T0/ve/v3zwgx8sBxxwQBW/66+/voY8//KXv9T9QvDiuCl4SZIkSW/od7ELAWp6YURKCPM3v/lNmWyyycoaa6xRRe2973336X236KKLlgUWWKC85z3vKQ899FAVO2LpWBHSDDFNwUuSJEnGxoCIXaQQp7///e81NPmnP/2pTDnllGW22Wbr2ro9vLxZZ521zDDDDOXxxx8fw7NrFbskSZIkGRv9KnYhPj7DswuvzuxKIhahy7HB85t88snLSy+99LZnF2FMpOAlSZIkvWVAxuxCiHzyxPw97bTTVs8uZliODZ6gCS3TTDPN24IZghfHTJIkSZLeMKBjdhHGjMRT+8Mf/lCeeuqpuk132PeZZ56p23k8wf8hcpGcJwUvSZIk6Q0DInbEKVJTnBZffPHqrZ1zzjnl97//ff29Hddcc019zo43N/vss9fvHCOOGUIXKUmSJEl6ot/Erik8TSEKgcIiiyxSPvCBD5QbbrihCp4HyImf8OYf//jH8uyzz5Zrr722PqLwwgsvlDnnnLN6ds3jxN9xfMRnkiRJkrRjwMKYCEGSeGYf+tCHqnfn8YNDDjmkCh4vzjJhlgi79NJLy6GHHlruvvvuMtdcc5WVV155DIGLv+PYSZIkSdIbBmSCCkLkWplpppnqEmGbb755ufLKK8uBBx5Ytttuu/qguVVT4Dk8z9qZvYnmsVLkkiRJknFlwMTOA+HtEgHj2RmLW2WVVcraa69dZpllljLJJJPU/y0dZubmhBNOWB8wl+wXn1Ir7b5LkiTpb9gaj05NNNFE1Y4ZZtGBN+Sy8MILl7XWWquu/bvCCit07dG/OO4FF1xQNtlkk7L88svXc4qCycNUU01VJwEaKgr7mbxDv5dGCJIUYhWJ0KkolgVzU2aeeeYqeh40d4P8T+gmnnjierOaS4k1j9c8h5QkSTJYsDlNW8ZeEb4pppiiTD/99LXT7pGpgcBxP/KRj1QHwd+GhpxbHuQlbGbaxXfTb2LXFJ+mKMXfbgIBk9wUPSMCJ/nNNvG/5HfbNUWvedxISZIkSTI2BjSMSZiiBxRCR8T0QoQt49P3tvN3fB+CJ8W+IYoheEmSJEnSGwY0jEnAJEIV3hwhi8T9lsL99rflxOLTNmPz8JIkSZJkbLzn//pxeqPlvKx88uUvf7ku9xWzKOOxASkeDo9Pv1s30/qXH/7wh98WyhC0ELf49Bvvz0Dwpptu+vY+A4X8yWssWSa99dZbbz8b+Nvf/rZ8+tOfLieddFLZcMMNu/bqH8xUNRi977771nFN8XljnToCUni/4RkrnyRJkuTd9KvYEQQid9ZZZ1UxCDFrFblI8fstt9xSfve7370tFq0i1+rR8fTMQlp66aXrhJYUuxS7JOlk2B92TjtP+ka/ih0cTmoKm795fc3k5kl+O+qoo+pLWo888sh6Q4lbpAhhhkH3XYie/wdS6JBilyR9R9uxStIjjzxSX9k133zzdf3yX0R0RIMee+yx+vytoYvBItqvPMwzzzy1fY0v7IXj3X777XW25EILLdT1y7jjWOzNfffdV1eUgtme888/f7fvA+1kLDGpTGJex7gyIGN28ckAR2KQY9yOkY5xOymMtYtgxON724XYxXFC6NKwJ8nAoiPqXZR//etfq5HpCzq29957b/nmN79ZLrzwwq5v3+HVV18tF110Udl9992rMRtMCMiZZ55ZO9tjW5y+tygz0a3vfe979br6Wm7QwfaKsx/84AflW9/6Vvn6179efvSjH9WXYCvX0cZdd91VV9fqaz0ZEMUgdJFCoHzyytqJXoiZv+N7nyF09msVuzh+kiQDwxtvvFE9rnvuuaeKXjJ22CQddl6qVaDGx0Z5Hdqtt95ann/++fLVr361zoXg0VlWUQdktHHaaaeVX/3qV32+9gEXO6kpdCF2IXhSiBiRa3pzkezbDF/GcZMkGTi0ueeee656FjvvvHM57LDD6iLug+2BjSTYJUMNm222WV3hZHx4880362L50003XQ0BzzHHHDU0KuzL6xttxDBSX73lCf7nP3T93a+0ilEIVCSiFd7ajTfeWGdkbrPNNm8LY3zGdkMpdAq3OQYphKCnK6mQelqW72kdjxhfvAFCZbdEUIR1w+OVohMQ5TPY5ZJ0Ns22qtNpjEt9vPPOO2vYTw87Oqi2aQejbFzMK7ssa7XSSit1/fJfvN/y/vvvr5PUdt111yoUjz/+eO3BC3ted9119Zzan+Ww5AM8TovI/+IXvyhXX311/d8wiMeW5JM3aj/7Sy+++GKZe+65x2gnwo1CgvJAmGacccb6t++uuuqq8stf/rIuUs/DIjLann1dj7Z5ySWXlOuvv77+LlT76KOP1rE/Y3bOyU4QKZPvXIs8OJ79br755nouY/Hy3Q7zAp588snq3cm7kKbrtHqKRfKVe3cQBWFa54rrMHbKjigj5eB47uWvf/3rcvnll9d5E/Js7NJ1KgdjrT51chxLKBGO4VjqgGt1HxzHeXiiJg4qL+cRIXAeYV3bCEX6zjbsmGtybsm1OpZPtlV9YN/YWOdXlv53P8Z13LLfJ6i0Eof32fp3/H/QQQfVQjzvvPPq/1EZfUZq/t+KuL8CjBmg/U0InYoQQucmq9QqkAWs99577zo7tD85++yz69sgNtpoozEmpTRFT+NPsUsGCgbN+o+ME4POaDHavmPYrQnJYM8666xlxRVX7NrrHbQTwvDd7363rLPOOuWLX/xi1y//xWu9jJvxHtV1hp9RZHzZB3XbMZZZZpnysY99rCy44IK1vWsb2jxhg22d31q7juE1YfKrrWoXSyyxRJ3opc1EO2HIf/rTn1bvdZ999qnXYh/Gli1hbIkGz2r11Vcv66+/fvnzn/9chZgYmqjmWAwvg23yyDHHHFPzt99++5Vll1227LnnnlV0P/e5z5UFFligtl0de8eRT3bDdtpzK85PPD7zmc/UNYNtYx+L6C+33HJt9wFbRZAJhP2VgevWWTC5Zeutt67XRaR0QuJa2TYddo91KW9vpTHRxv7sDI+esMvLxhtvXJZccsny9NNPl8MPP7zuryzYSvfM4v6RR/fJ/VIu8gadAKFe90tZqiPKxZJrOiHO47Gy9dZbr273s5/9rBx99NH1PrsPrsHkn+j89Ib3dX0OGE0D7G+Zjc/A/5JCClr3a/7fyhNPPFG+853v1IIfCPc+8uozkpvq0/lU3BNPPLE22v6EgdGgTj/99CpmkZRFfEa59FQ+SdIX1HGixqgxTtonY0kUGC7G8thjj62GzkxkIjW+8GQYWG3LpAzG7+STT65eCg+Qd8grci6GmZgw4meccUYVKXlkHBlMRnSnnXaqkZHZZputW3EIeJSOccUVV5T999+/vo7MTEidcBNOlMNDDz1U39ZCLAga70Jnlw0SZZFvBl35EGJlSKx5fTymbbfdtgqv4xA6ni6vjVfZxHEIlO/lnfjLz6c+9am69qZjEifnbG37OuE6JWa3i5Z5Htm2PDyLVG+wwQZV1HmbvEtCr+Ny8cUX1+vXmSHMRJDHrYNBvOSTjbONfLkXhMz9+PznP1/fVsPjP+WUU972Rgklb473bZKScUwenHPr4ChT9tO9lZcvfOELVSTl1TbOpbP/yU9+st5PHQtvyFEPXfu4MOBiF7Qzym4o4ru+eicKTM8heg39iTyqsOHRSSqTG6Qy6xV+6UtfKt///vfLuuuu27VX/6A3rHemQWsoGr7wgd6dpPFKzVBmkvQX6jfvR+8/OqLagzaqrkWHrz9Rl7U1oTBeCW9txx13rD14dV3bu+yyy6q3xSMiBPKz1VZb1eEQgkUEHYcxJnxCfs2OdHe4VmLLaK+22mpVRIXaiDmBi3AeeHrERzl89KMfrWLHNnSHsuKZ8pq0ZVEaeScojHyr2DmW6zf7krDxnAks0fRJYOzvbQdsQROhPuXAHhI7Y31QZmwlb50YKWfXQXCVD4/RdfCwI6QZb6dRhu41T4zwqhuuXTm7Bp0C5a3svZOUUDuPjgKvV3l6NlrnQB7kUZkqc/vzigmssnSvdVDkkbfn/vKI5dFv/h5XocOAjdn1Bhchib2LH+v19AWFoGBDBPo7RejQDZQUtBstRePT2PTY2u3f18TIqNwqigYSgqfCxKeYthRLrLU7TqZMfUnqFQMZoUoGyliYXjiMc+2www7V2+DZtRpshJfDsAlLMZzafCA05niMpUkwjJ7ffc9z5Ikw+iIo8qLNnXrqqdWACg8aM9P+eGO+CwEwvCAqQrgYbPu10jpmx9A7pn0WW2yxKq6Mq2MR0kUWWaR6TMqFCPOGwg44DlHccssta0eYV+K8tmOwLbTx8Y9/vB6X/SBYvFNCRCCIahOen2uSJx4kURLaM9yjPIVL7escbFMTgu0+EUk2lZ0IG6kM5V+5whsUeEmuwfUSOR14wuV6lA2RIuyQbx6gcibcjk2YlT1vTHJ+52GjlJewL49P3mMbgip/RI1wimLZR9m7/yHo6gHB9h3hZON4fjoi48qwcAWalT9JkuEBoRI+1JNnsBgehllYSefOjEPeinEVvfV2MLIEzCcRIEBNfKfDKDzF4DLIQl0mfBFQHUg9f+dnJGE72zPCPA6J0RbeYoBjVSXHct7eYh/eCyPc9FgJLYOuAyCsS6zkOWCYe/LqAsLZ9EjkLc7ZCsExLGMyirkArs+1EQRRLAIaXk4rjufeyVcTZW8sL8Krtmnm2368Ob8RFeXcmmffBb5XHu6/+7XqqqvWstd50SExa9T1KTeiTNjcKx0eoVSdm3nnnfft++RcgfP0ty4Mudjx6Kh6sxCTJBl6GH3hRD1yQqc3T+g8AG6CgIkKetg9CYp2Tex4hsaCjBUROEaVp/jggw9WQSWijB2vxXa8Dx6jiR3CbLwrYS0GlkfD6PPGdtlllxrmF4IjfsJ9hBCM5bgYTNfCyPPS2KTII9EhboSHh+OYPCCeIeGwPcPe3xAfwkPslQ0PjHfs3CJMIFitRASIbSWa8k7oeK28I9dmDJbQCSO6H45jspD77frc6xDj7oj6QXiJ8V577VXH9txvnrzzK1PH4vXrIO2xxx7lE5/4RPVUlaf7Reza0doJUJdCkPvCkCuMUB0X2M10Ea0XmCTJ0KAtMkb/7//9v3LEEUfUCRVCSIxpb2GgCJeZc4yfCQ4Ej+E14cCYNIPJKxBGI3RCbCZ88UIYe94CY8mAM/K8AwZbeFP403YmQZgsY0ytr5PUhGsJqUkXBN64l1Cav30vxcxJ4TmhTeFCMwmFGzEu4toTRI035DwmiRjOkB/iy5vSKZAv194KIYsQq1CoDgWBlE9Jh0FHhci4Vomg21bHw7nd97F5xUSS0Hv+UsjZPeHF2VdnxL1Spq7DvZKEOOWbdyoUax/3uDeoR4SbKOtkjKtWDLnYcXlVdkKnwrTrqSRJMvgYjzGjzjhTeBJ9xTN0Hj0wVmNcy8QRq4Iw3qaS6/UzlLwznpyxImFSnqRZfDwu+zHQQmAmMjDSxsG22GKLOi2dCDpHd57C2HBu52OcCbwwqikNPKBDDjmkeizG7YQT5cfENN6MsTSCTFyk/oBI6AAQWGN2ysgMUaHJ4447ruy2225VaMxcbSXGteTNoxXGVXm/OhkeY+D5mgdgQp1yVobK9Mc//nH1sHVqhEfHJtxEVx6dS/kLZfLGjVe630KUJp14TEG5ffazn63bePyEYLkuwtwMk/YEz5ZeuCfO0Qwl94YBf86uO5yWe65gqb0Gpbeh0rtZwwX5JMB6iyqaJCQg73oXela5EHSS9IzOLK+NkYuJD+ozg8lrE9IKCKDthE61NSIYIS8TsbRJ4TmhQ9vAscKj8DsPhTHkpRDtdvBMdLSF42ynbWnTJlP4nsgRTgbZhA1tznl5qNp/wDsRHmQjLGnFRvA4tVmi5VoJMzGVPzg28RHmI6Kuq4lrsB/bGHlRDibfCAu6buFDeSOIrciD0C9v0HHYCedWjsqckCln9stx2DjX79gzzzxz7dw4r/Igjs4jT8rKtcm3jpBr5qQ4l/Pw0twLQuf62SbH4Dk2y1TnwP2KiU+uhz1TXpF/x3UP6QLkVXJO55bPsXmfTYZM7Fw0d1aPQCG7cDOQTOFXkMMFxZNilyT9B4PIiKm7PfXqbce42q6dUdM2tUupN57IuKDNE2jn1b4CngVvSr54kjA+RbgI4gEHHFC/60/iGlvz4jvXPDaDL69sQzvvPOyba/X72I7VHY7jGO6Ze9GO7sp0XHB8yTHG9X4PmXUkGuLregxm5xA7g6UUXoEkSdKZMLw6a2MLX9mON9OdAWbsGE2eQn8KHZyT0W41yvLNg9FRN/7lYWljYuyX0OBAoJza5cX3vREn+3YXhlZujqMMe3Os7nAc5+hO6NBdmY4L6oT89uV+D4nY6QXo2ZmcwhU1bZl7rjBMVmmGCJIkSYYLQobGz4xVCaNKxqw8CxaeXjI8GRKx437z4MzI0iMSJxbDVWlMLxb/TZIkGY4QPI86CFl6xxyhM/sxGd4Midh5PsWArQpicJb7axDUtF6ztUyrTZIkGY5E2M/EF0mo1XfJ8GZIxI6YETWzbHh04q8mX1hwlMdn1laGMpMkSZL+YtDFzowcYUrPiFgGxzRYmHFlCrJkiirBS5IkSZL+YNDFzrMthIzgee6ERxcQPDMzPcvi+ZIkSZIk6Q8GXew8sEnMvBzQg5TNZ8NC7Hh2KXZJkiRJfzHoYhcrAhA14tbEIK8lYUxY8VS9lQqSJEmGC/Egu+eERalijoEVQiyK4XVlXqtjTsJA4LgW4fZSUw+3e8aPA8FWWrbMXAd5k0d5Td5hUMXOTbDiiAriMYPWBx15eVYIsWSMp/49ZJ4kSTKcaK46EisqedCcXdOR9zoiS3ANBI7r+MTV387p3IRXXuSJ0FllJMVuTAZV7PQ+PHZg2q6ldbqbrhsvCrSieJIkSZKML4MqdmZg6nV43QevrrslX6yQbTUVr6WwfZIkSZKMD4MqduGphefWHbEyN/fcGF8KXpIkSTI+DIrYiR3H6zSsOODh8Z4Q3vQKB8uIeeGfNyQkSZIkSV8ZNM9OWNLLAi2g2ptX+AhleqGgySq5FE+SJEkyPgyK2Bmb82qHTTfdtKy44oq9epWElykSxuWXX/5dszaTJEmSZFwY1DG7JEmSJBkKUuySJEmSjifFLkmSJOl4xkvsrHJy+eWXl0suuaS+YbyVJ554olx66aX1d28mT5IkSZKhYLzEjoBZo+2CCy4ojz76aNe37/D444+Xiy++uP6eYpckSZIMFRnGTJIkSTqeFLskSZKk4xlUsfP6icsuu6x84QtfKNtvv33ZbbfdylFHHVXuv//++ruVVqzcLTR6wAEHlJ133rnstdde5YQTTijPPPNMXclbaPS73/1uOe+888r+++9fvvGNb5Rf//rXdf8kSZIkacegit2dd95Zbr755vLqq6/Wh8atpHL99dfX5DtCd8UVV9Tk9RVTTjllfQD9yiuvLFdffXV59tln63vuCOa5555bt/HAOhFMkiRJku4YVLG799576/vsLAG2++67lz322KPMM8889d1Q3gn1xz/+sfz0pz+tgrbyyiuXPffcs74IccIJJ6wvRbzvvvvq+5q8w8nrglZfffWy+eabl4UXXrjrDEmSJEnybsZb7OI1PT29KNBLWW036aST1scVPKZw99131+/22WefGq6caaaZ6lsOeHneejDHHHPU3y0cTfh4dR5lgKXH1lhjjbLSSivVNTRnnnnm+n2SJEmStGO8xI6IESOv4Gn3ZgJeGK9tsskmq8K14YYblo9+9KPljTfeqON266+/ftl3331rmNJ3PDrbC1H6frvttqtCeOSRR9YxO4IqOe90001XJppooq4zJUmSJEn3jJfYGU+bccYZ6zN0Jp+0wlMTnpxhhhnqthZ0Xm655cpnP/vZctBBB1Uxe/PNN+tr5m+77bYyySSTVFFcc8016zYmn0gHHnhg+d///d/6PWzjWEQvSZIkScbGeKmFV+/MN998VdCMpz300ENV+Hhp3kruZa3G4RZYYIG6rf/NvBTO3GijjcpWW21VxfK1114rr7zySp2QIoQ58cQT1zDmWmutVVZbbbUqaiah8OoIHXzG30mSJEnSE+MldiaOELJZZ521PP300zX8aHmwiy66qJxzzjl1jM142qKLLlo9sRdeeKHccMMN9dECszLtQwQJnjTFFFOUddZZp04+8TiBdNVVV5Wf//znVSiJaJIkSZKMK+MdxuSJfepTn6qzKomSGZT77bdfFb3555+/jrl547ht11577frdTTfdVJ+fMyPzkUceqWLoPXfG9nzPqyOIn/70p8vXvva1+pZz43vLLLNMFUeiaLwuPbsExoyF0XWGPL7S02Sp7rCP8WJjzxFFMJnq9ddfH5BHW5xHve7PZfTiGoyV+1u+nUN0JUlGO/0y6LXgggtWgbMGJk/MhJOYZGK2ZOC5Oo8SnHTSSfWhcB7giSeeWDbbbLM6XkcQp59++jp55ayzzqrrap599tl1goqxPrMwl1pqqfqQubeYTzPNNF1HTkYzwuc6ReqWThaRGleIpBm/8cynseTzzz+/TqgSYu9vtJHDDjusnHzyyV3fjD9EzUznG2+8sYqp4YHvfe975XOf+1yfOgBJ0kn0i9jxsqaeeuoy++yzV89NaNPfvmvOmCRmvDJhz7nnnrvMO++81TOcfPLJ355swnOzn4fO/e6ZPCFO43g8OYLnf16g4yXJXXfdVVfWEf7+5S9/2SexE2LXAbPwgYlVvCLiQQB5S/2NWcwmbvVnh+2BBx6obxjxybvTlpxDW8woSDLa6RexCzQoDcxYXk+NK7aTutuOkDlOClrSHbwVRt0zm+qSDtTtt99eRa/dozA9IQzKK+LFOeZAoxPn+dElllii65vxh0f61FNP1XAusRYt8Szqeuut17VFkoxe+lXskmQwYdBffPHF6tXxYJZffvkaujMzWBgSvDJ/33HHHXX8LSBoZgY///zzVeAch0jy8ByPcMD+zz33XN1fiJOYNr094U/PhzqW34UQH3744TEmUxEgY9O+t82DDz5YxZgYiVjIC2/s1ltvrePZzeRa5MX28icf1113Xbn22mvr4zqObcwyVhVyHfLrfMbrnEMUJDBG6HcTvhzDORzDtuHNWulIGTi3/JpUpiNg1nWSjFQm+J//0PV30g0x2M/ASYwT4yMxpMaJNtlkk/oYRn/CGDGQK6ywQjWKQrjCwma2SuEd836FgUdbqEq40jqqBMbkJUlIk5e20EIL1YUHGHdjesaPjS0Lj4MYfeUrX6lC4R4y+sacLWfH4Au3EzL31iMxlrH72c9+VmcRu++WqHMPiCXx8fsxxxxTX2ZMdOxjYpb7YsxZPm+55Zb6N0EO4bK/yV2HHHJIOf300+s4tbVffZrwRYimnXbaKliO/aMf/aiey3ii48k775AwXXjhhXXM3AIMhMl+Jnp5jvVjH/tYrcfeOynUa6zw+OOPr2OHrtO2hhOefPLJOv7pGLY79thja2hUnnmjwq6jrZ61whaEPVB/2IOwCeqV+zQQ9gDun3pqqcQPfehDbW0CezBabUJPpGfXIYQga3A+RwPEjnH3eAvBsOScWb2Ei4cTRim8mebMR4aK4BifI0qe6bQEnQkpZhfzEsGYeYTGGzpMKFlyySXLcccdVzshFiL3iI0JU85PPD7/+c9XT+zHP/5x3YYRJBQ8Qt7XV7/61bLxxhvXZ039T6yIDDEmZATz+9//ftl1112rCBFt10XYTDYhWqecckrNg04QgeSJOb9FFyTH33vvvet1OQfPUznwbH/4wx/WRdVtRzRdq//POOOM+ihQPDMrmRQmT45FNHmejpckI5EUuxEOY8kQ/uAHP6iGi9FixDudpojwOBh7ntyqq65ae9dChQQPMbbX2gkgZL7TM9ZL5s3xyMwIjtCfnrPHXhh+4rL00kvXHnOEAvW0CZcFyRdbbLEqmjwtokFECBZhFWYlxETG7wTO986vF24SCU+A5ymkyOOy8IJFFUziMlmL6BDj8FDl0zGImR69/LsO1+B8riu8D50gY5s8V4/2uCaP/BBPZcfDNDlHWekUEHviz1teZZVVankob/UtSUYiKXYjDMZRmM0Yj8c7hJkkvXT/ezsEo9Tp8Mis0sNIG58SaoswozAmwx0Lh48NoR4CFilCQBAaInCExaMzZgITFPdAyI+IEFuzkIme3/0tLCh8SmRhf98TIbONTb4KnN95nJdIC187PwElbGZuhoAZQxOCFMY0jmYfHq560cy/1AxhETzCTLxN5CF4xvN4f7xH2/LsQPDk1XURUJ0I1x6hutimNYrgd/XSWGKMOfpbWTW3s5/7o64SdSFe10xIiXOgoyBEHWFdYVp/8y5bt+Phq/9nnnlm7fCZWcvDdt2BchKW1lY88sQjP+2002pnobkdsbe/diXsfMQRR1SvXecp7ids5z54lEri/epMNI+VDB9S7EYADIsGrbGZCMEwaNhCUkJenkn0PSNiG0KgYWuMUtPQwPF4HoyQbRkZnwyI3wL7+Z5xYTgkQqrBt27nex6lCR6Sv+WnuZ3jC/2Z4MEoMK7GhuS1dTsiRqwYdMnfzWthoBh+IiBfQmwMJ++FASeAEsPDkDt+8xz+bjXW7SAevLAQJyJCMORRGfKo/N4kJoU0jZ4x1+ZEkVbkx6QQ42tElNDxqoiN8lFWRMF4EI+RkPJg5WNs1wDHl1/5kL8mxDSuKbBdPDak/GKGdZzL8dyP5j7K0zik/MmrFZCMZ7aKWHO7WClJnY7rCWI7QhbbtTuetsHDb24X4tksG8drt12789pOfXI/bEeY210H756o62Rpg9pKb+5HMvik2I0ANDBhMz1HExm8od24jV40MSI+tgmDFkLBeDKcrYLHCPvduIzGSiCM+/CImts5rm00ZkZGg9fTDmEMNHpiY0IDD0sv3N8aftPgM0oMnIkXet/Gm4i22ZDN7eTXtfJg9K5/8pOf1L8JqO1cJ7HjNZhW//Wvf72OZ0neYv/FL36x5o8nw0ARLP9HOblGeTaG5bOJY0tNmh5SE0Ikr+5NdAAcm6ATYM+TEkc4hny0I+4bz5TBFDLdeuut3xYlQsfoKn8rEvFIlIm3/TeFPPLZmn84N49SvprlrTx0OOSf9zkuuNbWczmu7+VFR6DdY0jKxEQX4VnhWx6kRGCbZWRfE4GEjz/ykY/UsKpPnnWUKwi18PCWW25Zdthhh7LTTjvVReZ5pPIQKE/fG1c94IAD6iLz6orOEc860HmxSIbxSmOjypt3xyOODgB0EkzmOfroo+v9+PKXv1xD1M1jJcOHFLsRABHS2IiI2XlEo9UbAoPFmzn44IPrhApLt5lxaJ+mUTcmRCwJw7e//e068YKo8MgcI3AORpY4SWaB+b81jGQfwmsmJOEkkCZnEIJmHhlBAiMRTPlwLa3XwTgyTIwaoyh8JzzI0PiNgBFxRnrdddetq/QQFkl4jgAa0+I9CnXy/hhH4u8aGXu9+6YYh8cWnYd2gtGKECMBcVxepmtxTh0HomIMrxmu7A7396ijjqp5Na4XIha4d8pbKFF4kcjqrBirbebXuYhFqwcCBnjZZZet1xmLtDuu+uKewdhdb3Eexr55fcRqiy22qMsAWvZP/fvEJz5RRbQpOsrZfSNO22yzTRV245PKsili7jehs16u7X0SO+dtbhei6PokYWfjkcLKTfG0D3F1ndJcc81V/496FdhHnVH3JOUe52xu52/fSc3zJMOTfPSgFzAkDDUDIjEuDIXEsAzGowcMvwbHOBMRjUu+mkaZQdGA9W7NyDOxgPFkIIlHNEifDMviiy9evQiTERgJPddm7zq2IyaWaWNEzEYkJAxWczsGwco5DLzjMjbEp2lIYjuTLYwTMVD2MduQMW7dTm9fmcq/ffTUGTZlwtMkVkSdGPqe0VEGzin0SXgc06QV3i4R4h0JUQmlEgrX5fhCjDxHY0JE1PGUs3vgHBGq9Bvv1PUpF/sRNp0Az6MJMxJxD4ybTOKe+U4+QpRhbE7+lLd79q1vfasKDy+Rl2zMiNfruMqG2Bvnsh+hJlY8SPffbNR4swgRdD7hbGUo3KlzwaNh/NVZnqJjuDbbujZC4v4qE2Fx4hP1mdcpP+6779wHuE9xz+Bv9cI1qW8+oz61bueabBvJPWu3nftgW7/7lGzXxHau3baR/N88Fvwf4tRMrdvBOVpTbMcWhD3QHqWwCfnowfAlxa4XDLXYMZw8FoaSwfG3EJCKzZuQJxVbBSdYQl3COgSCIW0KGGzHQBITv0cPV8Np3Y6RFebxu+S8YZgC2zGAjul3n/bT+JqNzT7EU0+fQPk0kYNxat0uvLpm7zq2Y3ydk4HXEZDvJraRR/vJM5Gxv/LyvbzalygTb+XK4DPQ9pU35eh7PXzehP2gHjiffR3bNTi2723jeoy1mUXpPrkW9URZ8yZcFxhIx/a9MlOPeIr24bkRSZ+OrQPhN/fRdRNY+xBpYTPHjf3kQTnJl32cQ51xne6H8id6UUbuk7zq8Lhu+F6dcy2BOqYcHaunscfRQKvYsQcpdsOf9/zHkI89XjOKUTxRqQmLxNgKPZngoXfu7QxmY3kTe3/ipbUqtmewGC2Vm1GWJ16IsCFvRS9eaM44luWhjEXwWJIxCaPEABCOdrjXDBlDwWD0FvvxiggJozMQuO8h9AStXf6ivroGhs91tINh5oG2hgSTnlG+TU+O9++eKEv2gNe8zz77DIg9gKGMT37yk/Vl1joeYRN0QNS9EL7wbru7/6ORLIkRiIqtt29MxAC66dG77LJLDQsKSxLG5N0wABFe646ehKQnbK/cB0roQKQZNL357vJnG0ZOPnoydH6X3xS6ZLSQYjfCYdiEwnbcccf6/NAee+zx9rhQkiRJ8l9S7DoAoQtjO8bWjMnwTJIkSZJ3SLFLkiRJOp4UuyQZJphp55k9Ex2SJOlfUuySZJhw+OGH18UDPG+XJEn/kmKXJEmSdDwpdkmSJEnHk2KXJOOAh4o9SGwtTK+H8fCwB/+tB+pBY1g+zJJkXuxqgWCLXlt/0oPHgbdEWCnf4s+elbRwtkUBHB8+Hc9+Z599dn2pq9fSWKrM8WO7JEl6R4pdkowDVs6xkLL3phGziy66qL5nzTqWxIoQeRuD//3mfWdE0TYE0comRCzWvyRkxNLfVt+wKges0mHCimNYq9LvzudYVs6xLFWSJL0nxS5JxgELLXtDgbcueDuBt0ZYp5CYWZzZeqbEiSD63dskvJqGF+dVMbxCgshLI25eR+NVMtayJGDEFD55hRZ/tjanySteTWOhaOLoXEmS9J4UuyQZB6xBKkTpjQbxBghi5j2DFtSOV+cQQOuUeqODF7FatJlQCkva3+MFlnyzYLdFna136Fjg/fndC1Dt520EFguw2LP1Fr2xgdeXjG4sDRcpGTspdknSSyz4yyuz4DOh8lYAq9fwyrw1gGh57ZC1K+O1QVazIXh+8zfPjFdoAWZvh/BpnUpLvEn+J5bOw9PzslzeoZeT8CK98sdrhniIOW43NDQFpik4ze8HmtbzxP/NfLRuM9pJsUuScYDXZTytaUy8ZUDYkTgRqlYRsp3vfBK22C+283/rCvV+k7y2xyuJvH6HOHqP3vrrr1/fB5gMPe5daxoM1BVpsM87kkmxS5JeQqh4Xt6c4KWoxI3Qed2SkKPvvJXAa6CELL3pnTh6yarXMPlbqNLC3cTRd8KVjmEbE1x4j4TPq1sInRCmRb4POOCAsv/++5etttqqvpiX55gGbuhoJzD+jw6Ll+x6mW9/J8eFt1WE4IXoBVkv2pNilyS9hAjxsnhV3pRO0LwF3DidRwOEN73glPExI1O40nceF/C3cKcXrXrhqvCnlVKM4RFNjx4Yi+M1htgZEzTRxbFsY7zQCitHH310nZGZDC0heE3RIUI6RV//+tfrWK5k/LaZvCw3krfoS83vIrXu51hf+9rX6vFD7CIPkQ+fkbdkTPLlrWNB8eh5D6eXt/Ie4r1mjGa8f01lTwYWY3IeGzAj09/K3X3haX3uc5+r9+Kyyy6rjwk89dRT1TvDiiuuWCeqLLvssrU+ETczOImZ++h+8vRWWWWV8olPfKKGK72Y1wxO2/AK457z9BhIwpsMLuxBhLKFrHnvzRe46pSYPOTT/763jcR22E9SBxzLPde5ab5bMETT9+oTcdPO3XtRBXXKm/TDHkjxnkbb2d6+jpGi9w4pdmMhxS5poh7w1nhkDJX64d54vdICCyxQ78Pzzz9fvTaemt+FPhknyaQVmIDy2GOP1ccP1CmTXWxrbM6sS69sUs8eeOCBug3DyZiZleklvbZn0JLBxT1qip17F4LnHrELb775Zq0j7IP//SbZ1jOWkv0dyz7arXbc9NDUI+1aagqd+sMGqFNSvKHcb017kGL3blLsxoLiSbFL2sHIMSbKv7Xs1ZswiO6T+9OOqFeMVXeGiXFUBx2DEUsDNnS4ryF27kt4d1LYBSnEzneEzu+2lewbnl078xti1/TsQuyi7YdHR+zCq7ONbcMeSFlX3iGtY5L0kehstOtkhAgyTN0JHRg02/RklBzHuXym8RoeuA/uewhTqzipF0SoKVCEKVIIVYhWu9Tc3v4haFHvnCs8uMiLfEVKxiTFLkmSZBxoikmIXQgdEZIIk9QqdMbbJCFInyFs8X/z90ghfCF4IXrdCV7SniyZJEmScYTYhbi0enWEiEdHoELIDEFIhMyQhDFZyQxbIU/bxXd+j9QUvhA9xyZ0zhVhS+eXl/TquifFLkmSpJeEmDTFjtBIIXQ8rwhfNr05YtcUMskkJs9X2qf1t6ZANsUuvLumZxd5aaYUvTFJsUuSJBlHQvAifNgUPCLUFLvw8EL0muJnMktMUApxC4GTWr06x7QtUQ2vTh4iRb6Sd5NilyRJ0gfCgwqhITwSsZN4X8QpRI9gSSFgUohju99D4Joi55gxXieFZ+f8kZ+kPVkySZIk40DTcwrvLjw74tMMZ8b4XYhViF8IWYhWfCfFNk2RixRCF15dU+giX+nZtSfFLkmSZBwhKM1EbFoFjygRp0jErylchGzllVcuSy21VJ2Y0vzeZ3iGrd5cu/ClFHmJ/CVjkmKXJEkyjoSwRIoQYlPw2oke4QrxkiwPZwk5YhffxXY+Y98QuUhxnqZX10zJu0mxS5Ik6QNNcQmxawpeiF4IVAiWz0iWhvMeQ+HLELrm77FviKfUKnSRUuh6JsUuSZKkj3QneISoKU7NTylErLvU3C7+DoGL1BS4SEn3pNglSZKMB02xaQpeiF54Yu1SCFe736TW3/3deo4Uud6RYpckSdKPNMWvmVpFSrr55pvrGzQ8b9fu90itx0rGnRS7JEmSIYLY3XnnnfUNCcnAkmKXJEkyRHj3ofciegVQMrCk2CVJkiQdT4pdkiTJEBHjce1e4pr0Lyl2SZIkQ8SKK65Yll566boWZjKwpNglSZIMEcsvv3xZcskl6xsOkoElxS5JkmSImGWWWcqMM85YV0tJBpYUuyRJkqTjSbFLkiRJOp4UuyRJkiHi1ltvrQ+Vv/76613fJANFil2SJMkQcdttt5U77rgjxW4QSLFLkiQZImIFlb/85S9d3yQDRYpdkiTJEBGLOudD5QNPil2SJMkQkWI3eKTYJUmSDBHLLrtsXUFlqqmm6vomGShS7JIkSYaIZZZZpq6gkmI38KTYJUmSDBEzzzxzmWmmmcrEE0/c9U0yUKTYJUmSJB1Pil2SJEnS8aTYJUmSDBFWT5FeffXVrm+SgSLFLkmSZIi46667qti98sorXd8kA0WKXZIkyRDxwgsv1PTnP/+565tkoEixS5IkGSLyofLBI8UuSZJkiEixGzxS7JIkSYYID5QvtdRSZdppp+36JhkoUuySJEmGiCWWWKKK3XTTTdf1TTJQpNglSZIMEVZPkSaddNKub5KBIsUuSZIk6XhS7JIkSZKOJ8UuSZJkiLj33nvrg+Uvv/xy1zfJQJFilww7/vGPf5SHH364HHbYYeUzn/lM23TIIYeUW265pfz973/v2qvv3HDDDeXEE08s999/fz13MiZ//OMfyw9/+MNy5ZVX5kof/Qyxs4LKSy+91PVNMlCk2CXDjn/961/lmWeeKeedd165/PLLq/C1pqeffrr84Q9/KP/+97+79uo7RM55HPOf//xn17dJ8Je//KWce+651QN54403ur5NxhfP1r344ovlueeeq3XZ/60p6T9S7JJhy/vf//6y1lprlf/5n/95V9pzzz3L4osvXrdJkuEKwdIh6y6FqOngtfut9btIsV/Se1LskmHLBBNMUGabbbay/PLLvystuuii9UHc9743q3AyfOhOoIhZM4kg+AzRav1dsk1s1y41j5/iN3be858CyhLqgaiIKt3f/va3mt56663ypz/9qY5l/Pa3vy2f/vSny0knnVQ23HDDrr36hwMPPLBccMEFZd999y1TTjll+dCHPlQmn3zy+kyO9IEPfKBMNNFEZcIJJ6zC0CmG/69//Wu57rrryqGHHlrWWWed8qUvfanrlzHRyF9//fVy/PHH13Kx7Zxzzlm/O+GEE2qZrbvuuvVt0BbbVZa33357vYfzzTdfWX/99cuCCy5YTj/99HLhhReWZZZZpoaVfve739V9V1111bL11lvXcnYuYbxf//rX5e677y5vvvlmvR8f+chH6nnnnnvu8tprr5UzzjijjiO6J67BGCBx/uhHP1ofIPb/o48+Wi655JJyzz331OtYYIEF6rJRiyyySN1Gfl3DWWedVfPrbw8dr7zyymXTTTet1xrLTDWRx8cff7ycc8455Te/+U3Ng2O7DvtC3m+66aZ6btc611xzlS222KIstthi5YMf/ODb+fvFL35Rx5Pe97731WsTxtxuu+3q+aOMxzV/nUqYUJ/xd1OAmgnNv9Un9WXeeect88wzT/2uSbMc/R3/a+vxvxRtv7lNMiYpdmNB8aTYDS4hdgcffHAVpW222abrl3eYaqqpqiFnKI499tjy4IMPVrHYfvvtq3gRppVWWqlssskm9d4dccQR9Z1hU089dTXqDDTB2m233crNN99cTjnllGqwV1hhhXr8Rx55pN57xyNoTzzxRBVE3xMGvxk7VBeWW265svfee5fnn3++fPGLX6zHtSqG8xDABx54oIZjXYf6Y+KNPE0zzTT13qlDd9xxRxUdYmE/YqgMZp111jLZZJOV3//+91WE/S4/7VbcIHC//OUv67GIuP0ce5JJJim77rprzRchVG9nnHHGuo9rmGKKKWrdXW211eo5vvvd71bRkz9h4qeeeqpcdtll9Rq32mqrWu/6kr9OJMynTylETgfMfQ9iOzT/NjHFPtq11BNNEfP3TjvtVBZeeOExhK/5dzImGQNKhi0E4bHHHiu/+tWv3pWImd8Z8lVWWaUaimuvvbZcfPHF5aKLLqrhT+sOMsxPPvlk7TRMP/305eMf/3gVMN5OdGAYG8aB0Wb0d9xxx+qNEbKY8enviSeeuHpeO+ywQ92GmJqwwbsJQxcv4TSe+MlPfrJuB9chH8TlqquuKh/+8Ier1yg5JqF0LCJjoszZZ59dr4lnSiRXX331ehzXx0ttB2/txhtvfPvY2267bVl66aVrh4gQXXHFFXUyDiHafPPNq7F03Pvuu696e/LAq7NdHIMAE04dEOXlOvuav05FmcT9l5STzoB7oVMseYVPJHUpko6NTqzOavP7din2NyP25JNPrvXJuTKk2TtS7JJhDePP0LYmIhXwonhXPBahTwaBl8LT8x1vzPYx1idMuOaaa9ZJLnPMMUc9BgFYe+21a4jO8k08SoKp582YCPcJexJJ3hpDE8bF+QJGxnmFNokr79NxiCkvi9jwypdddtkqIo5LYI0/Chm6XuckXMKHjs9r8pu8mabu/K0weo7Pe9tggw2qWPHe5PkTn/hENaoEbYYZZqje6/zzz1//JnqMrdmvRI83QhyFdBdaaKEaWttoo41qZIHXQPj7kr9OpSl06kkk3/FyRQz6O3kMxD1zz9WXFLzekWKXDFuE0Ix1ffvb335X2mWXXaqnFSEb3hExMw5ln9lnn70aYD1i3xE1Bj9CvY7N+yJytmPghe3id/9LjDujoefNmxRa/tjHPlbHrxgeotdqVHibzZCUczkuUeRhEYX43feug+gRQdsQDyL94x//uOy1117VE91nn31qeNb1tDNkvELJuQis8CiEbZ3PtfEICDmRg3MrE+Jve+Xk4WZ5ifwpG4ZVebouXkpf8teJxDU2RYbwSINx/d2JXZT/aLgH40KKXTJsIWJEhgFvTYxwoKEbp+JVGMMwtiZcyAO0HSPNkHteLPCbh6SFFxnoEM3uEAa9+uqrq8dk/O+nP/1p+exnP1u9uHZGpd2xCAtPiQdGNGBfXqfv5IPAEj0hVcc/5phjymmnnVbP58F3AsM7bT2+a7Sva/TcFgOI8MKMadpGmJVYwbmVAwEG0SOOzz777Nveqm0YVEIpn8LCfclfp6J8pPDoJB0kojPQuC/OFYIXIhspGZMUu2TYosEyxkJzrclDuAy7bQidZKKF0CQvxuQJswl5KMJtjLdwJtEjKg899FA10sapwjD3ZKCF+RyDl2SM0FgY4084ojcddHcc+SPGPDCzIk16ISzG8AgOo0WwhDSFPoUDhUJ5oEKSxtOIYlO0A/vx2HzGWJH83XbbbXVmpbw7t+vXEZAHxxHadB4Tfgix5Dfn4uWZyKNsXSdj2tf8dSLueXhTkvIJARoMsXOeCOk7b1Nwoz426+VoJ8UuGbZowEKHp5566ruSqfAmj5gMcemll1ZjbJKE8a/NNtusemwET7hNWM8YFA/HdPlYmSU8KZ7i2BD+I5zEkYdnEgxviYgwLr1ZzUW4UjiVUBobO/vss8v5559fZ4OCFyqcKGRozM8YGo/Sdj6JYnfn4QETM+OAxE75/PznPy/XX3999cp4bY7JuyReQo5+d36/ESwzK43lCQnrKDivsjJhhYA7hzz2JX8jFdfCO3ZtxFx98l1TTEJgiB0BGiyxI3Ihds4Z3l3kL4VuTCb4H8tRJD2i0qhAUamj9ybxMhhbU9xNauhPzC7UCzehgKGMRw2aoTyJETL+0imhI2Us3EZMeGDhuTUTrwjCbgyRst9yyy3rRArPLPGciBmRYsB9Ek7Gn5HmfZityMjzYBhp4TceizJ1fsnfnh9zHtvxlMy+9GlsSzhPWM8kGds6L0/SBJTAd7YjuvLBC5J/Ys0TMm7I43IMgkUQJYJICCW/O99OO+1Uxck9b0UehSrlj9A7L4H22IOOgBAs40jIzGj1qIL/jT/63dicfBI9ZXXNNdfU8lev5FGHwbXNMsssfcrfSET5uE8HHXRQ7dgoixA4+D+ELuwC8eFNK28TpfobgnvcccfV++FeafuRlHvYA3SSXRhf8jm7sRAVW2VWiSVGVJhIpWOs8jm7/keZ99RD1oBdM4FhZFy7cghjZF9EZyCO5575W3k2f5Pif8R3jqVj4VMdcO8Jo3uh7KP5hHfoHI4RE0QQebG/0B+hEy6UBxDRjTfeuAoFr5Tn5Lojv/52Lh0ex+3uPkddVUeFItUP+0THCMqKASf2/o7rkOcwio7h3Oq4v4VfEeXj/H3J30jEveHdWtgg7qmOlQ6Ema5mrCr3sA3KliharHyNNdYo3/jGN+o+/YloBqEzOYiY6qDo5Ch/90Fyz90r9yzF7r+k2I2FMCBDJXZCRDvvvHNtaOFFRMVWocOQqdhSEBW89RPt/h7b7/B383/E/z3tE7Ru2/zNOJtrGmhCwML4jysMu2P0xYioQwzV5z73ufqohIfTCQ7PyEoaX/va1+ojEe5v4FxwrnEREeeyvf1a8+n6XcfYyqE3ZdXX/I0UhDBD7AiZcnN/1Fceug6LsLTE21VWxM49di8HUuwsFEDsdIDlSWpGf9iM6MS01oHRSIrdWFA8GvRQiZ3jrrfeerWnriGpyCpxVGTfhVFrGpv+uq39WT16OhavRpivk3H9wt5W14hJHLwjdUv4NB6Z6BTDZEKQSUBovabm/+2ut7vfx2VbjO9v2rhwrZVptPuow9qatqcNEjn3TYjXeKfPr3zlK9X7G0ix02Y892kcttW7C7GTR9fSen2jkRS7saB4hlLsPMvlIWHnCk8uxC4Er10PPm5ru9vb7rfW7ca2TXfbY1z+jk/PzZlc0emoS7wFY2FmYvrfuAvjxWgxTp2CCUEegEZPxravv6G73/vrmNq6FWM81qKD0qzDiM4m70pnzTOYvLyvf/3rdRLPQIqdxQLMDBZmjuENYhfenbxF/sZ2zaOBFLuxoHiGUuxG65jdYBIhvTQK/UuM6QVhapomp/W7cf0N/u7pt6Ddds3/Ef/Hp0dCTOY5/PDDa3gy0N60P49h+PRIiklJhI7gfPWrX61LqQ2k2JlYFGKno8SzC8FLsXs3aR2TUQ2jxogJL+rUJP2HKITn9yKZLSoZ74pELCSzPSXP7UXy3KBkbEyKmazxdySzP80QjcRTjiQ8HEmo0QzJSMKPRKqZzCiVhCIl28hXiIVrIiSux9qo++23X+3ofv/7369LrzW3HWjUV0lnTUIIePyfvEOKXTIqYST0kA844IC6huEXvvCFGqrijfQHHsb2eALP38SG3uBZwSOPPLKO94RnMdJh+Psz8VIGM/HaRE5EdAiw6M0hhxxSV4zxVg7jrESVN8WLwmDduxC15mek5N2k2CWjErMgjSl51kwYaMUVV6weBgPXH3gtjnfqEdTeCqjtPAzvOcBkeCAsKGS4//7712EF0/09HuI1Rh474Mnx9hAiM5iC0zzXYJ1zpJJil4xKiJ0VMfTczXb1gLnQVvTOxxdjPR52N2aVRmjkon540N9zc5/61Kfqw/dCoiFwwVCITpxzsM430kmxS0YdhE7I0Kofxl94cyYcCZMJV/nNTElvNLAmpofITVASKrKdJcOImRClh45bw5S2cQzn8bvHRnhtjmFskLfH87O/pbxs153Bsq9jCIvaRh58F/lzHHmRbziW3z28bj/5t53t5SvHJcedGHsMr79VYJr/t/420MT5WlPyblLsklEHw2/MxcPCZtr94Ac/qG8yIEZWN7F6vwd2rZDhgX5LPxEPomcJN718b/P2ElfjNpZ0a+JtCl6u6RGDb37zm3UNSqJDlMyuNanBO+K8HPVHP/pRFd12EwoYLWtcfutb36prWcqf6e9nnHFG2X333atHarzRm8/l2zGc0/ksJ2WJKy+QtZ1HO+Sd2CbJaCTFLhl1mGjg2UUhKWN1pnCbSUeQPB9FOCzfZUUT08lNGrEYMk+JYN16663Vu7NCRryktYl9iJnZhkJfHi4mUoTuZz/7WZ2ebhKKyQ7ORZR4gs0eOS+MYFmf0gxD09h5kMYBvanAmp6WtSXKxNaxjfXxIOWNOILYmXxjBqPjPf744/X7JBltpNglow7PI5mGTkSIgLUOCZYJKwTD/8RF4hXBwsiESbiQcJl27gFikxeEuJqYtGDKuvEekxicxzvmHMNkGKteeCs6z9EamTwu44fxHBdRvfjii8tll11WF7G2xqJxIgJI1OTfi2otUO05Kw/jm2hj4WyCyQOE1TwILVG2vWsTDk2S0UiKXTLqMDZnIooHgyV/WyiAh0SMeE2eueKZeTlrvBmBxwTjfNYk9Bth83+TOK7zmLbu+MbpjM95gwUxdWwrbjg2b8y4WoidbYVY77///ip2sYwaoZLHWMzghhtuqG82IHARJvW3cxNHIkhozTJ1DNdoTC9JRiMpdknyHwiOMTkPKPOcAsLhOSqTE2xDwHxnNZvWGXk9wRs0OYQI2R/2t/IFz5AQhUfmkxfnfJaqImJEKh589zzgmWeeWd8SHmFNx7S6DrGTV8cltPC/c8WzWEkyGkmxS5L/QAyIhdmNhCYgPMa5hCR5fSB40rjgoWP7OFaIWsycNKlEONU28DYE44QehxDiNG7HOySwhMs4nEk0Js5IJqRYQ9U4Y8wYHNf8JUmnk2KXJP/B2qNCisSH58SjEi60YLOxNqFAS1P1Fp6W8CZvkYfGozMuKPQoBClkaTV9q6xYsd4YnweYQXiFHy30S4BNiJGInTFAbxPw8DnPjadm0ovZpcKeSZK0J8UuSf4DwfHwsFmaxsEs/HvooYeWU089tU4iMcFDOLO3ECkhUeHGyy+/vIZGTSaBxw08TuBVP8YCeWq2bYZFCaW1GY0N8jQvueSS6gny9nDOOefUxxqsyehN2sKWxgGTJGlPil0yKuEVmbSx5JJLVo/N/z533HHHMu+889bxMTMoCZDn4bxs1aLEFgk2CzNCjt0hLGk7osWLI0SWmLKWohmdJpQYQ1tqqaXq83pCpI5pBqVZlpAnsyk9HhGv/3HMeGFnTEoR9jTjkjgSbRNT5DfehG4/CzB7HGJcvNMk6STyFT9jQfGYFGCchZGS8hU/nY17HhNGiExfx78cR30hNu6P4/iOh+aZOfdtbKLZHY7rOI6tDuQY3eDhHuqoqB/ugclH6kvYBR0lz2h6bGUgX/Gz5ZZb1o4Q26CzpKMTr/hhG3TU1A92IetHenZJ8i4YBmHH8RE62JcQMThxHJ8xGYZB6iuOwbCl0CVJ70ixS5I2EJD+EJHujjG+x4/9x+cYSTKaSLFLkiRJOp4UuyRJkqTjSbFLkiRJOp4UuyRJkqTjSbFLkiRJOp4UuyRJkqTjSbFLkiRJOp4UuyRJkqTjSbFLkiRJOp4UuyRJkqTjSbFLkiRJOp4UuyRJkqTjSbFLkiRJOp4UuyRJkqTjSbFLkiRJOp4UuyRJkqTjSbFLkiRJOp4UuyRJkqTjSbFLkiRJOp4UuyRJkqTjSbFLkiRJOp4UuyRJkqTjSbFLkiRJOp4UuyRJkqTjSbFLkiRJOp4UuyRJkqTjSbFLkiRJOp4Uu2RY8de//rW8+OKLPabXX3+9/P3vf+/aoz1/+MMfahrbdkmSjA5S7JJhw7/+9a9y9dVXl2WWWabH9OUvf7ncfffdXXu15/vf/3457LDDyj333NP1TZIko5kUu2TY8J73vKd8+MMfLrvtttvbab755ivve9/7yjrrrFN23nnn+t1aa61VZphhhq692vPmm2+WN954Iz27JEkqKXbJsIHYzTbbbGXbbbd9Oy222GJl+umnL2uvvXbZeuut63errLJKmW666br2SpIkGTsT/M9/6Po76Yb/+7//K//+979rmE36xz/+UT0GiQdx6aWXlk022aR6If3JtddeWx5++OGywgorlIknnrh84AMfKBNNNFF5//vfXxOPR8Kf/vSn8vzzz5enn3767W1HGsTOdU011VRvpzvuuKM888wztXwXWWSRKnKu7y9/+Uv57W9/W8vn8ccfL6+88kq9R5NPPnk9zi9/+ct63xZaaKEyyyyzlFdffbU89thj5c9//nOZdNJJywQTTFD/fvTRR8uDDz5Yj/HSSy+V9773vbWMlat7+9BDD9X7/OSTT9ZzKV/fO49tnKvJ3/72t/Lcc8+VJ554ovz+978v999/f83XhBNOWPP8yCOP1PM5njzJY+RZvbKvfZzL9f3xj3+s55En9/i+++6rY5bKxLHkGZFn55KHZ599tl6ba37hhRfqd87j+oxlGvv83e9+V8/nXPLDE4469s9//rPbvEwyyST1nNqCfPhd8rcydX/cx9ay6STCJkjKyr0Lu6CshePnnnvustpqq3Xt0X+4D8cdd1yt27POOuvb7T3sgrrmPqnj7rf70Mn3orek2PWC4Sh2KrR8yUMY1fPPP7+cddZZZcEFF6wGvhO4/vrrqyFeY401yswzz1wbMWP9m9/8ppx99tnlpz/9abngggvq2Jx7NO+889Yy+tWvflXLZ4EFFihTTjllueqqq8qpp55aBWOeeeap5ecYJ5xwQjnppJPKhRdeWIXV9zPOOGMVBsJy6KGHVuPy85//vJx22mn1XhMQhmaKKaao2zchYPJ18skn13t37LHH1nsnD0899VT58Y9/XE455ZTyi1/8ot4zeVRvHOfll18u5513XjniiCPqfWQwiat9hW2VwwEHHFBF7te//nU588wzy+23316N7UwzzVTzY4KP8zjO6aefXs4555xyww031DqibAg9Ab/sssvq8a+77rp6Xa6f4OtMROegu7wINcu3bc4444xy4okn1m2uvPLKKr7u0zTTTFPvVacSNiHFbuSQYcwRiIbGS7jtttvKIYccUrbffvuyyy67VMPNqDNsnYxOwDHHHFM9CZNVCNL8889fLr/88ipovItAWSiT73znO2XhhRcu6623XvnQhz5UPZv999+/luN+++1Xj7fuuuuWI488slxzzTXVe2K0GHiGfOmlly6HH354+exnP1u9HELAk25FZ4hHRFAYws997nNlzTXXrAJFVN56662a3x/96Ec1PwTC8eWDkBLI9ddfv4rhUUcdVV577bVyxRVXVKGzDQF2bEaUEG266abl+OOPr8aV+PDmHP/mm28um222Wfnud79bNtpoo9ppsJ28E0T50TkigLb5/Oc/X42jfOkQ9JQXYmobwn3LLbeUVVddtRx99NG1PHm05557bk4MSoYdKXYjCAaYcWFY9tlnn2qk9Mh5KEJVjBGDyOB2Kgy1MCChYYiXXHLJstxyy1WDyyu55JJL6jbgKQlnEjKG3yQXPWGe4Z133lm9EPsTMr3wlVdeuY4ZEhNGW6eCAPh9xRVXrNsKpfIWnb8pqk308Keddto6xuics88+exVNgmXskcAQZzNLbSeP7htxJc7y5X/bfeELXyjbbbdd9ezkh+dgP/kxnvmRj3ykeqK8TUn4Uh3xvYiAvBvjXGqppapQEXnH4QG4VgK/xBJL1DJ0Pt6d/PeUF+XMu+Ad8uKWXXbZ6i0rG+eVD0KJ6Jg166TvlJ0wqnoryZf7wksKbEdU5cF16dzoSAi3NrfTqRBh8RshlpS3/LuWwHb2JfhRXu6zTkLrdvZ1v1yH+qBzIL/KP7CdfW0XIWN/t543GR5kGLMXaHQq9lCFMRlZXpyQFUPm77vuuqsa3HjmTB4lMKCMh+n5QmV+F5YT3oP8P/DAAzWExQNwLIJpu8kmm+zt8T7b2V8+brzxxioQsZ3jNbfjcfCgeBDyqWffup3/7c+bce5bb7217XZNWsOYyps4MDL/7//9vzp5JcbgGDt52GGHHWp+XSPDRvR4V4svvngdB2S04trt63f5YrAkISDiJxzEY+JFERhGnpGWH2OEBEL4sAkREDZk4D/zmc+UqaeeugqHPN900001DMgQK1cG1LEY8y233LIKkPspz36TF7hu+XZOHqVJOsROmcmr63ReHqvyIUK8VQL1wQ9+sF6HDgCPi9g6j/MKcRFkeYLzKr9PfepTta70lBcCxbNzz3irtpEPQmNb51Y+6oayVc7CbfCd+64eKJOop3Ds1u3kyb269957a0dHSK51O+fgkWsf/tZuXF9zO/VMPVWftSHnlFd1p3U7v6l7Qtsxpqus3U/baWvuq+PJm3wSO+XlN/sJM2YYc/iQnt0IQGPW+BhojVmDIr4apc9WQsgkRp8BYnyDCLURpdiO0elpOw2/u+30sm2ngdtOYgBsF14W4nixHVGwHePfPF5PMDDKQ6M2RqUxQ2NnUKNjAp8EgAdEWJ1bmckHA+13HoOeO4Oml89LMiZlPzASjst4wPkYk+hYtMM+tiFGtndOeXaNzscQOx+RI0Y6M65HPldfffUqFH4jBsbEeGT2g+M5bhhm/+ugyI9rUj6+a44n+vS/fLlm27oe+9kWDKPvoux6yov75b7aVqdDubkewuF7Xl6MGduGALv+IL6LCVXqs+vjdbVux9tzfvfO9u08QNvphMiLjovOjI4Br9C9DqKMiLgoCA9M8l1zO7gO55FPyd9xzYHjxX11DMk28tZT/UiGhvf856bkXekBxaMhqMAMiaRSa0h6WBrqpz/96TrJYcMNN+zaq3848MAD6+QLHozGqWdL9DR4edIAfcpj8zYaWxJOYtwYMZMF9EjDs9NgHU+jdz2wnW308hle2M42YYQcj3G0DSPd3E5epDBWjmcbhjmMru2Um6Q8HU+yTVNQmnzrW9+qkzG++c1v1nCZsv/2t79dRV8Yl1F2fN7B2WefXQVZmdmG4fFMnmMrQ56WcKZ82OYnP/lJPQZvx7nlnfElAsSOKH/1q1+tz/cJ9/Hi9PBN/CBY++67bw0TNmGQjZkJuTkH5Pnggw+ueZMv4uZeKIcoWyFFRtrfyoN4uyZjaL6TR9dqjE4wZosttqj31T6ujUgLmbpfwo2uTViWx6KOyos66mF7902417by434y+ibhqHM6N+guLxtssEE9tjzttddeZauttqodhKhXrou4qk+diLbmWtVh5dEUO9dOHL/2ta/V8eFvfOMbXXv1H7xqkQbRAB6++6e81dvwoMPTU6+1We1stJOe3QhAhRVWM15iQsr3vve9suOOO9ZZlxGmagqFMSKTH4Q5jA0J9YUwQeVnBOeYY44aepX0xhnPECaEsDneXHPNVeacc85q1HzXup18EAPbSnr2BKOZL9tpkPJjWwbaWBSDShx7g0YtD45rvJKRJhjCSEJpBCGuVR5dE3ExviccJiwpX75jnHiXhIvoC+3tsccedQajDkV/wfgoEwLn2DFGJOxGbIgQz+Siiy6qk04IkW2Npbnv8tssnwjRMqq8UmE75e1e+yScQus8a9sQaNfuPofHOjZ6yov/1QFlLQSuU8DgOxcxlYQJk2Q4kWI3AtArY7iJAnEwEWDzzTcvBx10UF0SS89eD4+Q2JYQMPiRGMrWnp3vHDO28Xe77QiU4/k9Uk/bNZPv2m1n/7Ft1x22Da+CQTVRh0CZMUiMjTfp3QbOxUAbx5N3YVPjLMTdaiwEUu+bh8L7IsA6CgS5v3BtK620Uu3pEykzOp2bhyhPvtcTN4nEPSbift9zzz1rXoUS9eQD3qPp/nvvvXcVJOOZykQHwnXtuuuutffvenbfffc6oUndUDbKqDf0lBcets6NcrfNqaeeWo9tRqeOA2EkvEkynMgJKr0gwhZChpJeuXEYSW92oCeoNJ+zkxhzkyUYLh4XD01iYAihyRh+7wSUO2+FASVaxI6BjYkCysOEHAIldMsQExD3Sdkw/rzYeO7LsXiGPgmbY3hIOjxG41S8Pp6L++5cJrYQEh6N73zynsKzbsV53JtFF12065tSjyMPkWf5Jxw6KSZyOKY8uLdxnx2b92Q2pfvLI/SYgpCqGaHy7RqJJS/eOeynQ+R4jqXMbOMYZqw6ZlxXePbKCzoG6g1h9tldXuyjg+Q88iDZVnkSSfdB+ThepxI2oRnODLsgSpDP2Q0/csxuLCgehnMox+yMDTG+DBcjxbCEIWLUVG4VW16Nw9jG952O6xX+c+0aeV+NqxCce6xMB9ooyLPzOU8YpVbkhdFEXJfrNGYbz9UZn7OdOsCgtUM9hfOEoI0r7fLSit+1j7gPnW5Y3cOmyBkbVtbu0WCP2emYsAs6Stq9jkdT/MY1ctLJZBizg2BseA+jQeigAQvPadx9FTrYP0LAA41zhEFqJ3RwLX5vvS5GixHznXvsON0JHcLr6qvQobu8NGFUnUeeRoNRdY1xnc3rje+b3w0kzfPFOZt/J2OSYpckIwDCKPQpeiBcmAxfBlNsUtx6T4pdkowAeGfGDU0K6e0kk2RwCMEJ0RksAYrz5Lhc78gxu7GgeEbKmF1PIa0kSfoPY3bG69gFY3bxrF3YBeuECu2aLNbfOL61Ss2SNQuXXTCBiE1wTiHnsAs5ZvcOKXZjIcUuSZJWmhNU2ARiJ5mkYnEF67F6VMM2EhsixQxOdkUyuYdYQttu0uq5RRv3ScS22WabOlPY5BRiF2O0xM44aordmKTYjYUUuyRJWgmxC7sQMzLDNljowKxMwsdOEEG/2Y7ASeyKZc2stsPOEK4gRM0n4ZJiopC2zw4QOEIXMzF97/eYidm0Cyl2OWaXJEkyXoT3RVjC6yI0IVI6pFKIlRReGGEKDyy+C+8stou/bRsd3Dh27BuiFsIW4pYi9w4pdkmSJONICEpTXELwmmJHmAhUiFhEZTzq4tOCB94kIfmOhybF7/EptQpfRHWaYhd5iRR5TVLskiRJ+kSISHhUIXRSCF2IUwhWU9CEIa1UY4Ubq63E9/Gbz9i+KXpxzPDw4pyt3h1S6N4hxS5JkqQPEJJIhCbErtWjI1QhWkQskrE2S91ZJNxSdbESSuun1BS/ELxmSLMpds18Je+QYpckSdIHQlDCmyI4Eb5senMhciFcREz40qSzZvJdfN/8tH2kED3HjbDm2MKZyX9JsUuSJBlHQkRC7AhNiF2rV9f05FpFzao4keL75v+2kcK7axU75yGu7cKZKXRjkmKXJEnSB0LoIoXYhXdHiHheIXpEKrw8iadmH+9k9AhCeH4hbE2Bk+zrOI4XQtc6bpci1z0pdkmSJH2kKXgxZhfenUTsQvB4Y8SqKXzwrK4XBzdFLT4j2Se8OakZvpScO0OYPZNilyRJ0gdCTMZF8EL0Qvjsy6t76aWX3hbCELb4O/YLkePRRfjSeZwvhC5SCt27SbFLkiTpI0SlKXZSiF1T8CKkGWIV4uczPLOmqDVTc7+m0LUTu8hPpOQdUuySJEn6SFNYiA3RiRSCR5QIXnw2RUsiVlLr980UohkCFyIXQhdi1xS8ZExS7JIkScaDpthFCgEKQQrRC8EL4TLjcpFFFqnrYsb3zd/bpVahC4FLoeuZFLskSZLxJEQmRCfELgQvPptemc9pppmmLLPMMmXFFVd8+7dmClGLv5vHk0JcpchH0p4UuyRJkn6iVfQihThFChEz63LeeectCyywwNvftUvNfeOYcY7mOZPuSbFLkiQZIJpCNBAp6T0pdkmSJEnHk2KXJEkyRHih64MPPljuueeerm+SgSLFLkmSZIjwFvM777yz3HTTTV3fJANFil2SJMkQ8Ze//KU88cQT5aGHHur6JhkoUuySJEmGiJhk8n//93/1Mxk4UuySJEmGiBS7wSPFLkmSZIiw9uWCCy5Yllhiia5vkoEixS5JkmSI8FaDpZZaqqy00kpd3yQDRYpdkiTJEGGR57nmmquuoJIMLCl2SZIkSceTYpckSZJ0PCl2SZIkQ8Rf//rX+ozd3Xff3fVNMlCk2CVJkgwRHiq3gsq1117b9U0yUKTYJUmSDBF///vfy+OPP17uv//+rm+SgSLFLkmSZIjIh8oHjxS7JEmSISLFbvBIsUuSJBkiJppoovqMnQfLk4ElxS5JkmSI8FA5oVt11VW7vkkGihS7JEmSIeL9739/mXvuucvCCy/c9U0yUKTYJUmSJB1Pil2SJEnS8aTYJUmSDBH/+Mc/ysMPP1wfLE8GlhS7JEmSIcJD5YTuqquu6vomGShS7JIkSYaIf/3rX+Wxxx4r99xzT9c3yUCRYpckSTJE5EPlg0eKXZIkSdLxpNglSZL0A7yzcU3ve9/7ynzzzVeWXHLJtr+PLSW9J8UuSZJkPGkKTwjRv//97zGS8bnW9N73vrcsvvjidQWVf/7zn2+n1u2ax4njR0p6R4pdkiRJH2kKTvzdTthCxDxq0Ex+m3322ctCCy30rt+awhefceym6MXfSc+k2CVJkvSBEJgQHIkoeZzgb3/7W03eRO4FrW+99Vb9jL8jxXftUrttHM/xm8IXopeC1zPv+U8BZQn1gOKJnlVUYBXwT3/6U/njH/9Yfvvb35ZPf/rT5aSTTiobbrhh1179w4EHHlguuOCCsu+++5Ypp5yyfOhDHyqTTz55mXTSSWuyiKxV0yeccMIywQQT1JBIkiQDT5hNn1J4Vy+//HLZaaedyiuvvFJ/D2L7vhAzNoNpppmm2ptpp522tvlItouUvJsUu7GgeFLskiQJwmT6lMKrk55//vnykY98pGyxxRZl0UUXrdv1J7/5zW/KOeecU66++uoy88wz13YvEbj4TMFrT4rdWFA8KXZJkgQhclKIHBshEbvVV1+9HHvssf1uD3DxxReX3XbbrfzqV78qs8wyS233ZnSGdxd2IMXu3aR1TJIk6QMheCF0OsQmlgw0zuk8xu6cU2p6l5GvZExS7JJhQ0+N1PfRkAeacT1H5G2oGIwy6Q3Ne9RMnUTrtbUKnTTQ1+z4IkzEzvkiD5GnoayLw5kUu2RYcP/995dvfvOb5Wtf+1rXN+/whz/8oVx//fVl7bXXrp8DBYPxu9/9rtx+++3lqaee6vq2Z+RNqHn99dev+w4mDJtwutDWCy+80PXt0CC0b0Fj5XDjjTfWv3/4wx+W73znOzXc32mEqEhNsSNAfhtommIXghcdDQxGHkYaKXbJsODPf/5zHf98+umnu755Bw35zTffrIPzPgeqIZvWffnll5ebbrqpvPjii13f9oy8vfbaa+W+++6rRmcwIXTOa8KCsaKhRDnIj06Le+RveXruueeqEHQa6qDUFDviIw00zquuhuA5tzxIKXjdk2KXJF0QqwceeKA888wzVXyHOwweQZFnHmYyOITQSUPh2Tm+8xA75wyxk5cQu4HOw0gkxS4ZkXjAlijx9rwe5cEHH6yhvPAiNPrXX3+9PP744+Xee++tSWiSKLQzBIzH73//+5p4ajw7z0rZ1rn87yWbzufTNt15cjwbXuqzzz77dn6E+QgTT0x+HUPY0+/O4Vi2j/2cR555uu3CgK6P92Rb+bOd4/netXje69FHH63ne+ihh8Yom3b4TXnZx3nlzzU7NuTRNStPebv77ruryDoPozvaUB4hLiF2Und1oj9xbvdYcs7w6nwfKXk3KXbJiOTJJ58shx56aJ3ebSxvhx12KD/5yU+qWIXB90LM/fbbr6y77rp1LMl44M0331wNQyuE4pJLLqlTuo2BnXDCCeXcc8+txuSJJ54oJ554Ytl1113rcTw0/Itf/KK8+uqrXXu/A0Nzww03lEMOOaR873vfK2+88Ub9jngceeSRZbPNNitrrLFGPcbPf/7zt/Pr/N///vfrNdnPda233nr18ZN2b7EmQnfddVfdlojb7swzz3xb6E4//fSy1157lY033rh88pOfLMcff3zNi3O1g9BdccUVZc8996zn3XnnncvJJ59cy1n+lYPy+fznP1822GCDstpqq5Utt9yynofgjkaUpbJpCl6IzkDjPhPWVs8u6Z4Uu2TEwbgSFJ4FgSAaH//4x6tXdPbZZ1cvilBddtll9cFbzzzZzvNIDPaVV17ZdaR3sBrFOuusU5+RYuyJp09C8qUvfal6kTvuuGM54ogjqrj+6Ec/Kr/85S/HmJTCyMnLhRdeWJ+BJBxTTDFF9azkS36/8pWvVFFyLmODRJWRYrTCa/JM5dFHH12+9a1v1fMSodYJKI6/2GKLlb333ruurSiPhNQxTApx7M0337z+TfBM7DnuuOPajokSTpNsCNdyyy1XTjnllLLLLrvUbX/2s59Vz9K1Gs+cf/756zOlZ511Vi2rX//61/VejCbc50ghMhLRkQYa51VfmudupshbMiYpdsmIQ0MXKnzppZfq3x6uJUzbbbddNdYeqmXcGekVVlihLLXUUvV7n7wb3l0r73//+6vgWYrJp2MSFOE6AmI1DCJndfqPfvSjZZJJJqnhPl4fCAaPkMB6+J/wzDnnnFVgze4UwvT/SiutVEXKsRyDd+Y3RpJIzzrrrGXNNdes27mmqaeeunpdrctPeXj4gx/8YJljjjnKxBNPXOaee+6ad+JodQ3nWHnllasHJs9+J1jtZm36ThhYOJJArrjiijV/a621VllwwQXrNtNPP331anl1yyyzTF242Ktp5IsnOVohKgQmhGewPDvnaXp0IXDNlIxJil0yLLAKjFUf2vWMNWbf24aQ8ZYIx4c//OFy3XXXlTPOOKOKktVkfEc0eHmMOM/s0ksvrR6I/wmkGYKtxsC5YwWKSCapGMOaaqqpysILL1xmm222+jfvxmtZGPqYtWmyCKETcrTKzSKLLPL2NTmGcxOta6+9tlx00UV1LE0I0xii3xgtyL93m7nGmWaaqQqvY7SbMOP7WD3DJ7EiPMKrlqwihASQ0C2//PJVtNuFMpWHjsGMM85Yr2uyySar18pzI5Q6ArxH+ZFXnqswrnMZNxRSG82EuCjX1rIdCJxLfWmmyEOk5N2k2CXDAgJBHHhIjGezwRI6xj624e0su+yy1Qvh4TG8xxxzTA2/CanF5BFGnLgI0UkmhhAGoc3eEOedbrrpqpcXEMIZZpihHqspzsRHIqg8vrgG4ivcSeAiL/JMYOaaa666TUCweWpBCHxvjCjBlV/CxxOLPPv0v/zIb+uxCK58C5+6toDnSXRt75quueaaGur86U9/WjsQOhTu12g1rq47kjIiOoMhdohzSc18JN2TYpcMC3gwPArCwDNpGg0GlbENA07IhPBM4jj11FPreJjxNJ6GMSriQCSE4X784x9XYZHOO++8Ogb1mc98phr3seEYBNYkDR5MQDAee+yxKkrEAEKXhx12WB2nI2y8zbgG1yWsaA3VyItkm69+9avVk+M9IQSzLxAn+dVZ4NGGNyjvrkEe5YUYNrHOapRx02CaVKOzYOzOWCWxFsokeMYmXatw72ikVWDi78ESu6bQIT6T7kmxS4YFjLTxKt7J4YcfXsVE2M9YkrAfcVhiiSVqWM4YlwepzQwUViOUxpCE6xhyBj3Gk0xGIaAMg0kVZi+apNIOIkPA5EESsjTOx/O57bbbqrfGG/PgtHCl8wrtxb6E2JiWvBCK888/v55bSJNA8jp5m/JivO8HP/hBnejiXH0xVq7VOQmVY/AKea3K0WSSeNRC+JJXpkxCnJvMM8881XtVrsLCwqHEUZkL/xJD1+F6HZto+t8YpX2aRnc00rz2wSoH52lNSc+k2CXDAuEz40weE+BBHHzwwfWxAZ8MsDEjkz4Yc+E2YUSGnCdn2r3QmpCmV6sQu4997GM1RMhYf/GLXyz7779//Zs4GHNrB0+O4SdIhNFjCITLTE8hUHk54IAD6gxKntoqq6xSx7YCHqVxL5NLfC9PQn22NUGGePPkzMgUdjVmJy+8ur54c8RNObgmMy2NpRHf7bffvgqd5bq+/OUv10cIHN/3xgRbIWLK3jgoD04e7SscLO/EzdgdQSXgZonyYomccxM+19KJ6KSIJDRpikvzc7AFpzUPSc9M8D//oevvpBtUJg07BoNVfqEiiYE1frHJJpvUnnN/IoTEQzCjkMfBsDBwjKOkZy8RCoa2r+Gv4QIR42FE+fIweBXK1WQJ4kLIlIPvXTvBs51yIUxCm8b0HCe8NN6Y8mHMGXUeImFrh+MI//mdcCy99NJVUHhPjLq6wLuMWYmEQF4jbBqhRPlzHNsQPtvJAwGBayWAZkzKr/rl+DHLMTChRKjQdzzNJhGudf2Msg4BcTIxJbw938uvGZZmkTpvaz1Rjjw++RZCVv7+du3yRwydu1nvlZN66TeTd5zTd7Zxn1yv4ypDv3dX3sMdHS/Pa/J03SPXqL2pB2xBiGGUjfvFqx4IewCTnYz5ag/KuNUmyFvYg06wCf1Jvs9uLDQrNaMiMUrGQRhRPfd8n13/w7AoYwaTgHSH++M+KIPmxI7AfWP0lY+y6k0ZxeA/wkg7j/vuN/egL0bEMRhFx3H/+lMA1MsQvyDG7BjB3p7L9elAyJ/9WpF3ZdrXMhhpCDULq6uDm266aRV4oVzXH/VNx0JZq4fGN/fZZ58BsQcQOrZIwP/+7/9WLz1sgk6gexbC535rO51kE8aXLIlkWKKRmoTSk9CBwbVdO6GDBs8Q+L23DZ8wMhZNgXAexsS5+mrk7ccQMVC9FZ/eEp2eJvI7rqLq2nWs2gkd3I/xKYORhk6EEC2PSoh32223ravLWKjAd4Q/GRmkZzcWFM9QenZW0jBJwnnkhfFmkCIx4M0EhiiMUet3zd9av4vU+hu23nrrstVWW9W/k2Q4oW3GxJ/u6m/z/+6+i9T8zdil8UltPtqSiIqwrlC58K/ZtMLHxmvNCE7PbniSYjcWhlrsTHIQ/xeKU4lV5qjQKrNKHUIXDTVod2u7u91j29ZDyVKSDDeMmws1+mxHX+s8rHBzxx131HbfRHvT2dQGjckSOrNujcOm2A1PUuzGguIZSrGLMTuVOiYRqNTCSc2K3RS7uKU+W/9u/h+fvfnb+Zx3pOIe6vmHN5x0DtqhRcCNNXZXf5t/x2dP38ffHjHx2InJJ0F4feoRL88EIl6eiTgmAqXYDU9S7MaC4hkOYjfaJqj0ByYN6O27T5J7qLyUo1mEyrDVGx5oCK4ZmeqRe9nuubdxwYQXMwXde7Mu1ZMmZgeaYRmTVeCa1RdlYR+GkmG0jQfL5UsZMZqjHW+v8AZ9k1CUsbLT8VM+ylr5mbUqjGnWruXjUuyGJ1kSScfiDQLCWxaItriyZ8W8beBzn/tcDU01e+uDBUGxiotn9izYPD4QTuLkOUBvafAQeCseqvdqIo9ARDKjUDnstttudZp8PA7hWcLdd9+9vs7Iw+LJfyMCEpEzyYmgELY99tijTlLx6iRviPDICKFJhi8pdklH4q0HjLZX3Xh7gIeuvVrHg+oMl3fbCVHx0AcbIhVh1fHBQ+rGlBhhbzuw6kzrw93OwXv0Dj0eyne/+93qFWyzzTY1D159ZBFtnqZteb8+M+DzX5TdvPPOW98C4ZFkS9N5L6EJW55rJHC85MGOECTjTopd0lEw0kJ7Vj8xM84DzjwfD3zz7qywYpUWhv7GG29s+wLWkYLl0Ii5ZdKsLGNNTu/Ma0XYzQPOVpXxrJgFtImdafRmMZpCH95dMiZekfT1r3+9dpKs4OMhe689ipVrUuRGDil2SUfBK4k3DJg0QOiEnUwV93wYYeDl8PYYKqIHIU3ieOutt9ZxUmtvWjmDGMQ2xm2M0Vq+TA/fC2JvueWWMV7gyjOyhqZ3x/EkretpG2FTq+G0QpyNAXvnneW+LFMmHGntTN5Wdx6WPAlhyi/ja9zIuKTJFK0Yu+GhmEhh5qCxHq/yEcrkFRI6kzuSd2OGpTqkrKzAo+OQjExS7JKOglf3yCOPVAEhbIx6K7wgzwxacimW6iJYxI1AWbfSAs3GZLyjTriQGJoIYozL4yBHHXVU3ca6kzxEQkiYjHUROr97CNlbF4zrCKl643gr8kkETz311LqP57p8eiMCYSV47RB+9TthNV5kPU7XISRpXLCnMKTtHNcxTGYQiiOISdLJpNglHQXPiniYoWbGpfGUVkwyMA7jYWCz2QiOcKAFkBl9YauDDjqoPjvlM940ztsjWhaLthi00JYwKEEjsM7t9TdEjUdgGxMZvHXA29HbPQfmN6IplPipT32qjgcJl8mPiSzPPvts15ZjQniFLM0ItOiAEK3QmgWgTTTpafKN6/U2Cd4pj26BBRYYY0HrJOlEUuySjoLXYiyLaLUuIcbT2mmnnerUbZ/ERbjQ5A7CYXtjWYSKEBIQkxDMmpR4UtZFNLvTp/FAYzg8I94cD9DxCKjxMeFCM0DNfrQgcqu3JRRJRHmGJkAYV4uHk+0nXCq02g4iKd+2M+3cFHgiTMi93aHpEQp3Es6NNtqoXpMQrlmXvFTX4s0LpqonSSeTYpd0FJ4r4tEJK7bOtBSyJFJ+54V5x5vwpTErXpdXAvmdePAMeTsEiHdlpiOxsrq/MCiB41XZx9gg8SEqZkMSHt6SCQy2cQxeVys8LJ6hd/IZe+M1WniYMHlswjNbVs5pFUlhSucTsuShec0RD5RHSZC9LcP1xFijfLguDzzHa5SI+t57710nqfgtJ1oknU6KXdJR8Oh4KsTO5BIPVQc8LDMRPewr9Ec0jPHxBiXjV82HcP0dU8sJB0Fo9YCcz34x/dzvUlM8/Nbu4V7nJLohZs4hP/bnUZpBSkhbsbI+AXYOQkUwCSOB5kEKcQqruj74nqfqbe6euRNa9ZZxHq4xTeKeJJ1Oil3SURAKnhSPiiiYncjLISI8NUIY3luIEjHg/RjvEoq0rURETACJt38TJiJj1mNM8uCV2c5MPdtMP/30VWB5gsbNeJe8sHbhSOc0S5LHufHGG9cXw1p02PNwe+21Vw2zEr2mcMKzdfJpVqln5jwzaF8r7liR33F5dzFLlNi6Rt4lMRyq1WOSZChJsUs6CoadQReeI0pWKrGKiBCj/3k9ZliaPGJbgkcEzdw0fia0acwvHl946KGH6tR+IUCiRLiMpRE6Y2YmgxA7HhKRsS0hco4IT5qcwstshddIgJzbIwoE0nF5Zd4GboyRALdC7GC8kMBGIozWZ7RKCrFzzUmS/JcUu6Tj4LEYmxK284zdKaecUsVv/fXXr2G8Sy65pK5Ob/Fgby03oYSY8Yo8AmDyir+NgQn1eUSBRyj8KRzI8/LslVAgobOaxrLLLlvDmbGNZ+ssI+UxAoLKOySurZgV+pnPfKaOzX3jG9+oMzF5a0Ka22+/fZ3kEvjOmJyZmzEL07U2E/GUX14tYW6GcZNkNDPB/1gDJ+kRYyrCVoxNjKsIUUlCZJdeeumAvIZf79w0emNNZgryHHgDjKpkvEiKMSHGLvkvysuD5B6kloiGySTEj7CZSelBbA+aKz8PC9tOGDLCncqdcNg3Qo68RjMmeVJmTRJVrz7ynfInfu4Rb42QEVN1Bo5rWyHE+N1+xuUk54888tp4aMKPreN9xJm4yqN60ISwxkQc+zumEKtn8Zy/neAG9nV9xNr+rjl5NzHG674KbUfYmz3QuTDLdSDsAXR0LHqgXqoH7WyCe5w24d3kWw/GguKJSi3EJJlFZyxGWExPO996MLxxD90/xogxUGbdYVv3V3l2Z+wZOvefoCr7Jlal95tZm4TG39blVG+swmH6f3fYxvmjE5MMP6IuhbiZCKW+mAzEHvCo860Hw5MsiV7QrneUPaaRg3ul8Ycx6AnbRkeiOxgQHmGr0EHPXgjz/PPPr545r98YHI+x3WouTeTNeVPoknEhbVHvSLEbAajMzQrd/D/+bv6eDB0eJjezkmAKZ5n0YvxPb1xoMOkMmu1tqNpetvtxI8VuPBjMyhbnap5vsM6d9B4en4kjJsdYfsyD21Y5MXEk71dn0NoGW9Ng0BqejPMORV5GCil240BrhVLhBjomHueJv5v/J8MPY30mssQkF5NDTBhpnUiSjHyiPTb/Hqy2GbYnzhv5SLonJ6iMBcVjQkJzgkoMShuQ9qyVdQaFqcy860+M+xjw/uIXv1gNqBSD0SZHGOORYoJKVvgkGVjYg+aENY+MsAcmqJiMZMKaBQEGwh7AEnEmv3z729+uE1REEmLSWtMmxCSntAnvkGI3FppiZ/ZVVPCo3MZkrF5hfUWNwLaxj89IgW3M5IJKGZUxemeRoudmejsxNetKxSZ0psk3H0VQqVPskmTg0ZZD7NiDVrGzeIDnJdkDNmBs9sDfjuOY2nJ4a2jaAylsgpnZX/rSl+ps37AJTbGL2ZhpE8YkxW4sKB4VNSo3oWpON/aKFM9Wed5OUuH9phFI9rGv5FhW1+ANOqbnqVRISeWUVFSVlqCpxLGcVHh1KrXkd9un2CXJ4NFqD0Lsmo8fWH0nbIHke9vpKIc9aHaMrZxDHK2+o41Hew6boI3r2IZNIHBhE1o7wCF2aRPeTQ7+jIWoLNGz8hl/R4UMAVLxIqm0rX/7VDFVSPu1/tb6d/TYbBuVV3JuRH6SJBkamrZAG9VWtdtov1J37TsSIQs70moT2m3vmM1n6cImhG1K2pMrqPSS6IX5lKJnFiGNZk8NzUbQbAi+s52KLQxB+KLnFilClNFbi0/fRc+ttaJHZU+SZGBp2oFI0f7ZgvhfCqKNNm2BpD3z9vxtSTlCFu087IGk/TdtQasn12oTpBS/MckwZi+IyqsiC2O2TlRphiv873sV2Da2DzFU1L4T6nBMS0SFKDYbQLOCq9R6c+E9NhtAM1yRYpckA08IXdgD7bwZzmQDpKY9iBBmrLoSguhYkoUIbGN5O206RFFiD3wX4scmsANE0WezIyyFDUmb8G5S7HqBiimppJKKG2LWjNeH0MXvUbGjckcFR7MShmCF4EXlVolD8FRsf/s+km3to1JnxU6SgScEqtn5jQ5wq+D5O4ROio5v0x60oyl2rTahKXjsguQ7v9kmhC7F7t2k2PWCqJhSVPAQM5U5Knn8HRVb0ijsF55dKyqj1Fq5Q9Cixxa9t2altm2IXRwnSZKBI8QubEGk6PyGDQiPLr5v2oOwBY7RtAnNNtwUPG09BE8KW+AzOsCxDXsQ+6VNGJMUu14QFTNEKwRPCsFToUMA/R2VOlJrxQ5URhU7UghYs3KH8LUKXVTqELskSQaesAfRtpsdYJ9hD8Im+C5EsWkLIjVpip2kffdkE+L/ELu0Cd2TYtdLQuykqLTNSh6VOlJU6mgQUbE1BI8q2NdDoSpkU/CiskblblbwZoUOsYt9s2InyeAQbbnZvsMWRGraA7+FzQgbEseARxWM41tSTlgy2vPYbEL8LYUg2i72T5swJil2vSQqt08VNyp6VPL4jO/i96jccQxCd8cdd9Sw56abblq/bwpWa+WOCh6f8VtsF5U6K3aSDA7acaRo59HuIzVtQfwu2T72jWN5S4aVV7xj0dsxtPWmTWi291abIIVN8Hfskzbh3eRzduNAVB4Vqln5VDw9reb4WkwqiZlTkexn1RWVu/l9bCtFLF5yvOjFRaWO82dlTpLBpykkPptio51KYQta7UG095hh7W8PlHurPDFsbtO0B62TUeI8TbGLfEXekjFJseslKlCIjNSs4BFmDMFrilVU0vjbZwhX/NZMsZ3jhMg1K3Wr0GXlTpLBJ+xBtL+wBdpqtNuwB03Ba7ZzQuZv4hV2pHW72DZErjlO1xS6dnYhGZMUu3EkKpUUFdxnVO5IKmVU9GaKim2f1u+byTGaQhf7RIVupiRJBh9tr9kewx5I0XbDFjRTs91LtrGPz/gutmt++j3sQtiDSJGPyFfybnLMrg804+1SxOHjuxijQ/N7vPzyy+Wqq66qD53uuuuu9btm5YyGE3+rxPF362/xd5IkQ4e2He27aQta7ULz7yZXXHFFefjhh8t6661XJ60RMjTbenz2lGKbpD0pduNBs/I2i7H5fSseNrUQtNlaFoJupVlZm5U4aPddkiRDS7s27+/W/9th/N64HaHzdpPo4DaJNj+2z6R7Uuz6ie6KcVyKt6cKm5U5SUYGPbX5vprb1vaf9mDcSbFLkiRJOp6coJIkSZJ0POnZDTKWEPKcnc8FFlig69skSUYrL7zwQn3Z60wzzVSfv2s3ZpeMP1mqg4wJKnfeeWe5/vrru75JkmQ08+ijj1Z78NJLL40xkzvpX1LsBhlrYz7wwANV8JIkSczGvOuuu8orr7xSV1FJBoYUu0EmZlFl9DhJEqRNGBxS7AaZrNhJkjRhE6QMYQ4sKXaDjGV/5pxzzpyckiRJZcYZZ6z2YMopp8zJKQNIzsYcZIzZPfnkk/UVP0sttVTXt0mSjFZiBZVZZ521TD311Cl4A0SKXZIkSdLxZBciSZIk6XhS7JIkSZKOJ8OYg4zX9T/77LN17G7BBRfs+jZJktGKh8mtoDLttNN2+9aDZPzJUh1kLBPmgfJrrrmm65skSUYzHiZ/4oknyhtvvJGPHwwgKXaDDM/OCiq33HJL1zdJkoxmvH18kkkmqW8cj+dwk/4nxS5JkmQImWuuucqKK65YZplllip4ycCQY3aDDM/OczVvvfVWWXTRRbu+TZIkSQaSFLskSZKk48kwZpIkSdLxpNglSZIkHU+KXZIkSdLxpNglSZIkHU+KXZIkSdLxpNglSZIkHU+KXZIkSdLxpNglSZIkHU+KXZIkSdLxpNglSZIkHU+KXZIkSdLxpNglSZIkHU+KXZIkSdLxpNglSZIkHU+KXZIkSdLxpNglSZIkHU+KXZIkSdLxpNglSZIkHU+KXZIkSdLxpNglSZIkHU+KXZIkSdLxpNglSZIkHU+KXZIkSdLhlPL/ASx2R15aDu3xAAAAAElFTkSuQmCC;" parent="1" vertex="1">
          <mxGeometry x="550" y="400" width="285" height="313.95" as="geometry" />
        </mxCell>
      </root>
    </mxGraphModel>
  </diagram>
</mxfile>
